<svg width="192" height="192" viewBox="0 0 192 192" fill="none" xmlns="http://www.w3.org/2000/svg">
<g clip-path="url(#clip0_725_7387)">
<circle cx="96" cy="96" r="96" fill="#B3D17B"/>
<path fill-rule="evenodd" clip-rule="evenodd" d="M25.5684 120.978C45.346 102.453 55.1442 81.9507 56.9861 57.6741C57.0918 56.3153 57.6504 54.9867 57.8466 53.6279C60.2622 35.3298 68.4148 25.9242 80.1757 27.9623C91.9366 30.0005 97.1603 42.1992 94.2465 59.5461C89.4002 88.4124 61.9984 113.776 25.5684 120.978Z" fill="#275529"/>
<path fill-rule="evenodd" clip-rule="evenodd" d="M65.5122 127.012C89.5473 114.044 113.356 103.506 139.641 119.569C142.76 121.473 145.614 123.783 148.125 126.439C157.788 136.614 158.905 148.27 151.22 155.894C144.381 162.703 132.786 161.736 123.471 152.331C115.951 144.505 106.961 138.24 97.0151 133.895C87.0693 129.55 76.3637 127.212 65.5122 127.012V127.012Z" fill="#275529"/>
<path fill-rule="evenodd" clip-rule="evenodd" d="M131.447 87.8382C127.069 96.3984 119.369 99.3424 110.99 95.5228C102.611 91.7031 99.1535 84.2903 103.2 74.9601C107.246 65.6299 115.006 63.4106 123.566 67.0944C132.126 70.7781 135.161 78.2362 131.447 87.8382Z" fill="#275529"/>
</g>
<defs>
<clipPath id="clip0_725_7387">
<rect width="192" height="192" fill="white"/>
</clipPath>
</defs>
</svg>
