<svg width="440" height="441" viewBox="0 0 440 441" fill="none" xmlns="http://www.w3.org/2000/svg">
<path d="M440 220.024C440 341.527 341.503 440.024 220 440.024C98.4974 440.024 0 341.527 0 220.024C0 98.5215 98.4974 0.0241699 220 0.0241699C341.503 0.0241699 440 98.5215 440 220.024Z" fill="#B3D17B"/>
<path d="M103.979 315.024C103.411 314.596 102.915 314.082 102.508 313.499C102.11 312.958 101.817 312.347 101.644 311.698C101.45 310.748 101.327 309.785 101.278 308.817C101.178 307.46 101.1 305.351 101.043 302.49C100.987 299.629 100.915 295.609 100.827 290.43C100.767 285.812 100.695 281.19 100.611 276.564C100.527 271.938 100.455 268.38 100.395 265.891C100.303 263.526 100.243 261.427 100.215 259.594C100.185 257.794 100.173 256.629 100.173 256.191C100.194 255.409 100.365 254.639 100.677 253.922C100.914 253.31 101.333 252.786 101.878 252.421C102.293 252.115 102.774 251.909 103.283 251.821C104.16 251.688 105.05 251.648 105.936 251.701C107.136 251.737 108.913 251.809 111.266 251.917C113.259 252.031 114.772 252.115 115.81 252.187C116.849 252.259 117.611 252.325 118.073 252.391C118.486 252.446 118.89 252.555 119.274 252.715C120.564 253.25 121.387 253.916 121.753 254.768C122.071 255.423 122.255 256.136 122.293 256.863C122.283 257.485 122.146 258.097 121.891 258.664C121.696 259.141 121.384 259.561 120.983 259.884C120.582 260.208 120.105 260.424 119.598 260.513C118.457 260.789 116.507 260.837 113.763 260.645C112.604 260.518 111.435 260.518 110.276 260.645C110.003 260.671 109.742 260.764 109.516 260.918C109.289 261.071 109.105 261.278 108.979 261.521C108.906 261.682 108.854 261.852 108.823 262.026C108.774 262.321 108.752 262.62 108.757 262.92V264.09C108.757 264.517 108.757 264.937 108.757 265.357C108.757 266.317 108.757 267.588 108.757 269.169C108.757 270.749 108.789 272.702 108.853 275.027C108.877 277.741 108.911 279.958 108.955 281.678C108.997 283.401 109.033 284.758 109.075 285.742C109.117 286.727 109.177 287.459 109.249 287.939C109.285 288.301 109.381 288.653 109.531 288.984C109.646 289.203 109.792 289.406 109.964 289.584C110.108 289.818 111.374 290.184 113.763 290.689C115.367 290.933 116.926 291.41 118.391 292.105C119.294 292.625 119.987 293.442 120.354 294.416C120.6 294.985 120.73 295.597 120.738 296.217C120.74 296.647 120.665 297.074 120.516 297.478C120.37 297.946 120.116 298.374 119.774 298.727C119.432 299.079 119.012 299.346 118.547 299.507C118.071 299.637 117.577 299.696 117.083 299.681C116.068 299.645 115.057 299.557 114.051 299.416C112.797 299.266 111.872 299.182 111.26 299.152C110.818 299.103 110.37 299.156 109.952 299.308C109.815 299.38 109.695 299.479 109.598 299.599C109.501 299.719 109.429 299.857 109.387 300.005C109.273 300.281 109.211 300.576 109.207 300.875C109.177 301.295 109.165 301.818 109.165 302.448C109.165 302.808 109.165 303.174 109.165 303.534C109.165 304.735 109.165 306.488 109.201 308.781C109.201 309.903 109.249 310.696 109.261 311.182C109.273 311.668 109.261 312.004 109.261 312.244C109.263 312.445 109.249 312.646 109.219 312.845C109.207 313.109 109.162 313.371 109.087 313.625C109.021 313.811 108.932 313.989 108.823 314.153C108.58 314.609 108.226 314.996 107.794 315.279C107.362 315.561 106.865 315.729 106.35 315.768C106.002 315.791 105.652 315.765 105.311 315.69L105.137 315.648C104.725 315.492 104.335 315.282 103.979 315.024Z" fill="url(#paint0_linear_641_3624)"/>
<path d="M138.639 322.053C135.59 320.482 133.071 318.05 131.393 315.06C128.176 308.943 126.591 301.77 126.591 293.45C126.591 292.849 126.591 292.183 126.591 291.523C127.323 277.855 129.454 267.77 133.014 261.137C135.145 257.169 137.168 254.804 139.083 254.102C141.101 253.27 143.74 253.446 145.788 254.144C151.046 255.945 154.606 260.051 156.455 266.612C157.104 268.726 157.556 270.897 157.805 273.095C158.068 275.888 158.179 278.693 158.135 281.498C158.135 284.136 158.027 286.665 157.811 289.086C157.595 291.507 157.263 294.258 156.815 297.34C155.47 306.144 153.839 312.506 151.923 316.428C150.008 320.342 147.439 322.527 144.239 322.983C143.547 323.094 142.842 323.094 142.15 322.983L141.16 322.809C140.288 322.675 139.44 322.42 138.639 322.053ZM142.198 313.427C144.317 313.025 146.16 308.583 147.733 300.029C148.533 295.823 149.073 292.333 149.353 289.56C149.634 286.787 149.772 284.088 149.768 281.462C149.768 280.682 149.768 279.89 149.738 279.061C149.738 276.976 149.694 275.404 149.606 274.343C149.562 273.44 149.441 272.542 149.245 271.66C148.243 266.311 146.436 263.526 143.843 263.256C142.869 263.085 142.425 263.305 141.724 264.006C140.037 265.927 138.567 269.409 137.306 274.349C136.415 278.041 135.795 281.792 135.451 285.574C135.107 289.328 134.931 292.441 134.923 294.914C134.923 296.151 134.947 297.33 134.995 298.45C135.193 301.546 135.77 304.606 136.712 307.562C137.576 310.131 138.639 311.902 139.893 312.839C140.53 313.358 141.379 313.725 142.198 313.427Z" fill="url(#paint1_linear_641_3624)"/>
<path d="M166.875 327.425C166.245 326.932 165.733 326.304 165.375 325.588C165.143 325.135 164.975 324.653 164.876 324.154C164.736 323.36 164.644 322.558 164.6 321.753C164.492 319.556 164.358 315.216 164.198 308.733C164.038 302.25 163.908 295.297 163.808 287.873C163.7 280.45 163.644 274.205 163.64 269.139C163.64 266.654 163.64 264.721 163.64 263.328C163.64 261.935 163.64 260.927 163.7 260.231C163.712 259.742 163.758 259.254 163.838 258.772C163.895 258.486 163.986 258.208 164.108 257.944C164.332 257.388 164.633 256.867 165.003 256.395C165.379 255.986 165.832 255.653 166.335 255.416C167.322 254.922 168.421 254.696 169.523 254.762C170.473 254.828 171.409 255.03 172.302 255.362C174.836 256.275 177.141 257.729 179.055 259.624C183.757 264.295 186.624 271.05 187.657 279.89C187.765 281.09 187.817 282.381 187.813 283.761C187.813 284.44 187.813 285.148 187.765 285.892C187.676 287.758 187.445 289.614 187.075 291.445C185.951 296.349 183.848 300.976 180.892 305.047C180.49 305.567 180.13 306.12 179.817 306.698C179.64 307.061 179.548 307.459 179.547 307.862C179.545 308.138 179.582 308.413 179.655 308.679C179.706 308.931 179.787 309.177 179.895 309.411C180.192 309.805 180.515 310.178 180.862 310.528C181.396 311.098 182.026 311.728 182.765 312.436C184.206 313.762 185.559 315.179 186.816 316.68C187.478 317.491 187.924 318.455 188.113 319.484C188.144 319.72 188.158 319.959 188.155 320.198C188.152 320.536 188.122 320.873 188.065 321.206C187.938 321.794 187.726 322.361 187.435 322.887C187.233 323.212 186.966 323.492 186.651 323.708C186.336 323.925 185.979 324.075 185.604 324.148C185.133 324.218 184.657 324.242 184.181 324.22C183.456 324.149 182.758 323.91 182.14 323.523C181.876 323.325 181.414 322.923 180.766 322.377C180.117 321.831 179.409 321.176 178.641 320.45C177.26 319.135 176.27 318.247 175.681 317.785C175.271 317.408 174.767 317.149 174.223 317.035C173.719 316.982 173.376 317.265 173.196 317.881C172.944 319.14 172.82 320.421 172.824 321.705C172.758 322.833 172.704 323.68 172.656 324.244C172.631 324.676 172.563 325.104 172.452 325.522C172.356 325.826 172.218 326.115 172.044 326.381C171.095 327.773 169.979 328.386 168.712 328.23C168.405 328.184 168.106 328.096 167.824 327.965C167.49 327.819 167.172 327.638 166.875 327.425ZM174.643 297.904C175.496 296.962 176.19 295.888 176.696 294.722C177.504 293.077 178.165 291.364 178.671 289.602C179.205 287.697 179.467 285.727 179.451 283.749C179.451 283.041 179.451 282.333 179.373 281.624C179.179 278.644 178.573 275.705 177.572 272.89C177.065 271.36 176.309 269.924 175.333 268.641C174.541 267.692 173.869 267.206 173.304 267.176C173.139 267.163 172.973 267.187 172.818 267.248C172.7 267.31 172.596 267.395 172.512 267.498C172.427 267.602 172.364 267.72 172.326 267.848C172.18 268.34 172.097 268.848 172.08 269.361C172.032 270.063 172.002 270.898 172.002 271.864C172.002 272.398 172.002 272.932 172.002 273.467C172.002 275.268 172.002 277.609 172.002 280.586C172.038 284.988 172.08 288.389 172.128 290.791C172.176 293.192 172.248 294.902 172.344 295.923C172.339 296.547 172.48 297.164 172.758 297.724C172.86 297.868 172.992 297.99 173.144 298.081C173.295 298.172 173.465 298.23 173.64 298.252C174.006 298.266 174.364 298.142 174.643 297.904Z" fill="url(#paint2_linear_641_3624)"/>
<path d="M209.309 361.125C209.181 359.204 209.121 357.097 209.129 354.804C209.129 349.229 209.509 342.6 210.269 334.917C211.29 324.184 212.902 313.073 215.107 301.583C220.78 271.726 227.983 249.204 236.717 234.209C238.658 230.852 240.881 227.667 243.362 224.688C245.315 222.201 247.576 219.973 250.091 218.055C252.912 216.207 255.698 215.284 258.447 215.288C259.241 215.29 260.033 215.366 260.812 215.516C273.095 218.819 272.975 233.59 272.998 243.723C272.765 263.369 270.029 282.83 268.225 302.37C267.513 310.085 267.085 316.616 266.941 321.963C266.793 327.317 266.729 334.272 266.749 342.828C266.749 348.255 266.749 352.553 266.749 355.722C266.749 362.452 267.266 374.33 257.967 374.799H257.769C254.167 374.799 251.442 372.764 249.581 368.67C248.44 365.32 247.84 358.805 247.78 349.125C247.846 346.562 247.677 343.998 247.276 341.466C246.946 339.821 246.345 338.776 245.475 338.326C244.605 337.876 243.32 337.684 241.393 337.726C239.453 337.782 237.522 338.017 235.625 338.428C234.077 338.7 232.594 339.255 231.249 340.067C230.422 340.629 229.752 341.394 229.304 342.288C228.872 343.164 228.589 344.689 228.457 346.772C228.325 348.855 228.217 352.09 228.151 356.376C228.066 361.931 227.96 380.748 216.938 375.909C214.813 374.885 213.072 372.95 211.716 370.105C210.37 367.284 209.554 364.24 209.309 361.125ZM243.764 314.807C244.963 314.381 246.04 313.67 246.902 312.735C247.765 311.8 248.17 310.779 248.534 309.356C248.894 307.946 248.929 307.612 249.161 305.803C249.389 304.003 249.605 302.016 249.797 299.855C249.989 297.694 250.319 294.284 250.776 289.818C251.232 285.352 251.688 280.814 252.144 276.21C252.732 270.135 253.133 265.561 253.345 262.488C253.557 259.414 253.669 257.073 253.681 255.464C253.681 255.116 253.681 254.774 253.681 254.426C253.549 252.825 253.285 251.793 252.888 251.329C252.558 250.794 252.288 250.506 252.15 250.47C252.036 250.442 251.919 250.424 251.802 250.416C251.526 250.438 251.258 250.517 251.016 250.65C249.239 251.971 247.088 256.059 244.563 262.914C241.657 271.036 239.231 279.322 237.299 287.729C236.047 293.272 234.988 298.25 234.124 302.664C233.26 307.078 232.831 309.861 232.839 311.014C232.863 312.024 233.173 313.006 233.734 313.847C234.157 314.665 234.86 315.304 235.715 315.648C236.206 315.735 236.704 315.775 237.203 315.768C237.933 315.766 238.663 315.726 239.388 315.648C240.872 315.521 242.339 315.24 243.764 314.807Z" fill="url(#paint3_linear_641_3624)"/>
<path d="M304.998 370.075C298.329 369.612 293.089 366.653 289.313 361.347C284.265 354.389 281.606 340.025 281.329 318.487C281.221 313.641 281.313 306.854 281.606 298.126L281.786 292.669C282.29 281.292 282.904 270.575 283.628 260.519C283.869 257.269 284.161 253.38 284.505 248.849C284.849 244.319 285.147 240.206 285.399 236.508C285.687 231.834 285.986 228.256 286.294 225.775C286.463 223.882 286.867 222.017 287.494 220.223C287.976 219.02 288.678 217.919 289.565 216.975C291.526 215.114 293.557 214.234 295.658 214.334C296.152 214.356 296.644 214.418 297.129 214.52C299.73 215.168 300.997 216.634 301.984 219.024C302.4 220.03 302.481 220.576 302.63 221.603C302.762 222.523 302.771 223.232 302.753 223.98C302.753 224.949 302.741 226.349 302.717 228.182C302.693 230.015 302.631 232.448 302.531 235.481C302.339 239.343 302.063 244.319 301.703 250.41C301.343 256.501 300.974 262.304 300.598 267.818C299.826 277.511 299.302 286.619 299.026 295.143C298.929 297.988 298.871 300.751 298.851 303.432C298.711 311.808 298.731 318.341 298.911 323.031C299.052 327.351 299.436 331.66 300.064 335.937C300.796 341.7 302.121 345.383 304.038 346.988C304.687 347.616 305.471 348.087 306.331 348.364C307.191 348.641 308.102 348.716 308.996 348.585C309.818 348.485 311.825 348.283 312.598 347.985C315.707 346.884 319.839 344.209 324.993 339.959C326.165 338.969 327.4 338.057 328.691 337.228C329.576 336.703 330.374 336.35 331.548 336.117C334.724 335.487 337.653 335.848 339.484 338.518C340.614 340.167 340.558 342.468 340.522 343.531C340.43 346.304 339.168 349.305 336.735 352.535C334.326 355.34 331.657 357.91 328.763 360.212C325.95 362.596 322.891 364.675 319.639 366.413C318.411 367.054 317.134 367.598 315.821 368.04C314.2 368.612 312.766 369.074 311.517 369.426C310.609 369.705 309.682 369.921 308.744 370.075L308.252 370.141C307.852 370.171 307.451 370.171 307.051 370.141C306.475 370.063 305.791 370.057 304.998 370.075Z" fill="url(#paint4_linear_641_3624)"/>
<path d="M340.384 326.657C333.745 327.071 328.439 325.528 324.489 322.107C319.225 317.641 316.085 307.532 314.993 291.955C314.709 288.457 314.553 283.533 314.524 277.182C314.524 275.858 314.524 274.533 314.524 273.209C314.617 264.917 314.839 257.097 315.191 249.75C315.311 247.373 315.459 244.528 315.635 241.214C315.811 237.901 315.961 234.899 316.085 232.21C316.193 228.792 316.359 226.175 316.583 224.358C316.696 222.948 317.037 221.566 317.592 220.264C318.072 219.326 318.737 218.495 319.549 217.821C321.673 216.12 324.355 215.468 327.028 215.75C332.075 216.453 332.625 219.609 332.779 224.358C332.821 225.655 332.845 227.432 332.851 229.629C332.803 232.43 332.707 236.032 332.563 240.434C332.419 244.836 332.259 249.038 332.083 253.039C331.683 260.047 331.482 266.618 331.482 272.752C331.482 274.793 331.537 276.774 331.615 278.707C331.771 284.71 332.023 289.382 332.371 292.723C332.672 295.791 333.216 298.83 333.998 301.812C334.934 305.849 337.871 309.305 339.832 310.257C341.363 311.059 343.13 311.287 344.814 310.9C345.613 310.749 346.396 310.528 347.155 310.239C350.205 309.159 354.221 306.86 359.197 303.384C360.356 302.565 361.559 301.807 362.798 301.115C363.689 300.653 364.994 299.907 366.102 299.527C369.306 298.428 371.648 298.477 373.585 300.941C374.445 302.035 374.786 303.558 374.786 304.297C374.786 306.218 373.633 308.415 371.322 310.9C368.934 313.164 366.369 315.233 363.651 317.088C360.851 319.109 357.89 320.896 354.797 322.431C353.583 323.024 352.336 323.547 351.063 323.998C349.472 324.598 348.062 325.06 346.861 325.45C345.966 325.752 345.057 326.008 344.136 326.219L343.65 326.315C343.262 326.379 342.872 326.419 342.479 326.435C341.849 326.519 341.165 326.561 340.384 326.657Z" fill="url(#paint5_linear_641_3624)"/>
<path d="M363.429 218.686C346.561 224.004 339.568 235.836 344.364 255.434C344.433 255.709 344.571 255.961 344.764 256.169C344.957 256.376 345.199 256.531 345.468 256.619C345.736 256.708 346.023 256.727 346.301 256.675C346.58 256.624 346.84 256.502 347.059 256.323C358.465 247.697 366.052 236.424 365.518 220.775C365.5 219.568 364.611 218.314 363.429 218.686Z" fill="#285829"/>
<path d="M397.314 277.963C384.108 289.722 370.356 289.656 355.985 275.49C355.785 275.291 355.639 275.045 355.559 274.774C355.479 274.504 355.468 274.217 355.528 273.942C355.588 273.666 355.716 273.41 355.901 273.197C356.086 272.984 356.321 272.821 356.586 272.722C369.852 267.32 383.406 266.618 396.57 275.123C397.572 275.754 398.209 277.14 397.314 277.963Z" fill="#265428"/>
<path d="M352.894 266.257C378.88 266.702 395.267 254.462 401.018 228.368C401.42 226.567 399.271 225.043 397.638 225.667C377.157 233.471 361.4 245.584 351.069 262.284C350.127 263.826 350.973 266.221 352.894 266.257Z" fill="#265428"/>
<path d="M114.328 372.212L106.326 382.77C106.12 383.027 105.823 383.193 105.497 383.235C105.172 383.276 104.842 383.189 104.579 382.992C104.319 382.795 104.147 382.502 104.102 382.178C104.057 381.854 104.142 381.525 104.339 381.264L110.048 373.73L104.759 375.357C104.571 375.416 104.371 375.429 104.177 375.394C103.982 375.36 103.799 375.279 103.643 375.159C103.481 375.04 103.351 374.884 103.262 374.705C103.173 374.525 103.129 374.327 103.132 374.126L103.283 368.61L97.5739 376.143C97.3675 376.387 97.0754 376.543 96.7577 376.578C96.44 376.613 96.121 376.525 95.8664 376.332C95.6117 376.139 95.4408 375.855 95.3889 375.54C95.3369 375.225 95.4078 374.901 95.587 374.637L103.589 364.078C103.787 363.819 104.08 363.648 104.404 363.603C104.727 363.558 105.056 363.643 105.317 363.838L105.371 363.88C105.526 363.997 105.65 364.15 105.733 364.326C105.815 364.501 105.854 364.694 105.846 364.888L105.666 372.524L112.971 370.285C113.159 370.223 113.359 370.209 113.554 370.244C113.749 370.278 113.932 370.36 114.087 370.483C114.338 370.688 114.502 370.98 114.546 371.3C114.591 371.621 114.513 371.946 114.328 372.212Z" fill="#265428"/>
<path d="M114.382 388.125L121.267 376.81C121.347 376.667 121.457 376.543 121.587 376.444C121.718 376.345 121.867 376.274 122.027 376.236C122.186 376.197 122.351 376.191 122.513 376.218C122.674 376.246 122.828 376.306 122.965 376.395H123.007L129.22 380.177C129.498 380.35 129.697 380.624 129.774 380.942C129.852 381.26 129.802 381.595 129.634 381.876C129.46 382.155 129.185 382.356 128.866 382.437C128.547 382.517 128.209 382.471 127.924 382.308L122.725 379.139L120.588 382.686L125.06 385.406C125.334 385.582 125.528 385.857 125.604 386.173C125.68 386.49 125.632 386.823 125.469 387.104C125.385 387.245 125.275 387.367 125.144 387.465C125.013 387.563 124.864 387.634 124.706 387.674C124.547 387.714 124.383 387.723 124.221 387.699C124.06 387.675 123.904 387.62 123.764 387.537L119.292 384.817L117.161 388.347L122.359 391.51C122.625 391.69 122.812 391.965 122.881 392.279C122.95 392.592 122.895 392.92 122.728 393.195C122.561 393.469 122.295 393.668 121.985 393.752C121.675 393.835 121.344 393.795 121.063 393.641L114.85 389.854C114.814 389.854 114.82 389.812 114.82 389.812H114.79C114.649 389.73 114.527 389.621 114.43 389.491C114.333 389.361 114.263 389.213 114.225 389.055C114.187 388.898 114.181 388.734 114.208 388.574C114.235 388.414 114.294 388.261 114.382 388.125Z" fill="#265428"/>
<path d="M138.813 398.684L133.902 396.282L131.639 398.431C131.453 398.599 131.221 398.708 130.973 398.743C130.725 398.778 130.472 398.739 130.247 398.63C130.118 398.564 129.999 398.482 129.893 398.383C129.66 398.139 129.533 397.813 129.54 397.476C129.546 397.138 129.686 396.817 129.929 396.583L140.133 386.84C140.322 386.668 140.558 386.557 140.812 386.523C141.065 386.488 141.322 386.532 141.55 386.648C141.779 386.75 141.971 386.92 142.101 387.135C142.231 387.349 142.292 387.598 142.276 387.849L140.998 401.991C140.961 402.321 140.797 402.624 140.54 402.835C140.283 403.046 139.954 403.148 139.623 403.12C139.479 403.105 139.339 403.064 139.209 403C138.985 402.894 138.799 402.723 138.677 402.508C138.554 402.293 138.501 402.045 138.525 401.799L138.813 398.684ZM139.059 396.06L139.521 390.922L135.787 394.476L139.059 396.06Z" fill="#265428"/>
<path d="M150.968 406.499C150.857 406.803 150.632 407.051 150.34 407.191C150.049 407.331 149.714 407.352 149.408 407.249C149.252 407.199 149.109 407.117 148.986 407.008C148.864 406.9 148.765 406.768 148.695 406.621C148.625 406.473 148.587 406.312 148.581 406.149C148.576 405.986 148.604 405.823 148.663 405.671L153.051 393.383C153.108 393.191 153.212 393.017 153.353 392.875C153.495 392.734 153.67 392.63 153.862 392.573C154.173 392.486 154.505 392.525 154.789 392.679C155.072 392.834 155.284 393.093 155.38 393.401L158.832 405.299L161.947 396.583C162 396.432 162.081 396.293 162.188 396.175C162.295 396.056 162.424 395.96 162.568 395.892C162.712 395.823 162.868 395.785 163.028 395.778C163.187 395.771 163.346 395.795 163.496 395.85C163.8 395.962 164.048 396.187 164.189 396.478C164.33 396.769 164.353 397.104 164.252 397.411L159.858 409.699C159.744 410.004 159.516 410.253 159.221 410.392C158.926 410.532 158.588 410.55 158.28 410.443C158.114 410.381 157.964 410.283 157.84 410.157C157.717 410.03 157.623 409.878 157.565 409.711C157.537 409.66 157.516 409.605 157.505 409.549L154.09 397.735L150.968 406.499Z" fill="#265428"/>
<path d="M182.158 403.27L178.689 402.429L175.867 414.087C175.834 414.247 175.768 414.398 175.674 414.532C175.58 414.665 175.459 414.778 175.32 414.864C175.18 414.949 175.025 415.005 174.863 415.029C174.701 415.052 174.537 415.042 174.379 414.999C174.221 414.961 174.072 414.892 173.94 414.796C173.809 414.701 173.697 414.58 173.612 414.441C173.528 414.302 173.471 414.148 173.446 413.987C173.421 413.827 173.428 413.662 173.466 413.504L176.288 401.853L172.812 401.019C172.492 400.936 172.218 400.732 172.048 400.448C171.879 400.165 171.827 399.827 171.906 399.506C171.939 399.345 172.005 399.193 172.1 399.059C172.194 398.925 172.315 398.812 172.455 398.726C172.596 398.641 172.752 398.585 172.914 398.562C173.077 398.539 173.242 398.55 173.4 398.594L182.717 400.845C182.875 400.883 183.024 400.951 183.155 401.047C183.287 401.143 183.398 401.264 183.483 401.403C183.568 401.541 183.624 401.696 183.649 401.856C183.674 402.017 183.667 402.181 183.629 402.339C183.549 402.653 183.352 402.924 183.079 403.097C182.805 403.27 182.476 403.332 182.158 403.27Z" fill="#265428"/>
<path d="M201.025 418.361L202.099 405.155C202.112 404.993 202.157 404.835 202.231 404.69C202.305 404.545 202.407 404.416 202.53 404.311C202.654 404.206 202.798 404.126 202.952 404.076C203.107 404.026 203.27 404.007 203.432 404.02H203.498L210.749 404.62C211.073 404.652 211.372 404.808 211.583 405.055C211.795 405.303 211.902 405.622 211.884 405.947C211.853 406.275 211.697 406.579 211.447 406.795C211.198 407.011 210.875 407.122 210.545 407.105L204.482 406.607L204.146 410.707L209.363 411.127C209.687 411.161 209.986 411.318 210.197 411.566C210.408 411.814 210.516 412.134 210.497 412.46C210.471 412.79 210.316 413.096 210.065 413.312C209.814 413.527 209.489 413.636 209.159 413.612L203.948 413.192L203.51 418.595C203.478 418.924 203.318 419.226 203.064 419.438C202.81 419.649 202.483 419.752 202.153 419.723C201.989 419.71 201.828 419.665 201.682 419.589C201.535 419.513 201.406 419.408 201.3 419.281C201.195 419.154 201.116 419.007 201.069 418.849C201.022 418.691 201.007 418.525 201.025 418.361Z" fill="#265428"/>
<path d="M231.639 406.715C233.131 408.213 233.991 410.227 234.04 412.341C234.089 414.455 233.324 416.507 231.903 418.072C231.239 418.836 230.424 419.455 229.51 419.889C228.596 420.324 227.602 420.566 226.591 420.6C225.559 420.619 224.534 420.427 223.579 420.036C222.624 419.645 221.76 419.062 221.038 418.325C219.571 416.813 218.728 414.804 218.679 412.698C218.63 410.592 219.378 408.545 220.774 406.967C221.458 406.192 222.294 405.567 223.231 405.131C224.168 404.695 225.185 404.458 226.218 404.434C227.231 404.416 228.236 404.61 229.169 405.003C230.103 405.395 230.944 405.979 231.639 406.715ZM231.477 412.4C231.443 410.945 230.867 409.556 229.862 408.504C229.395 408.011 228.83 407.622 228.203 407.361C227.576 407.1 226.902 406.973 226.223 406.989C225.544 407.005 224.876 407.163 224.262 407.453C223.649 407.742 223.102 408.158 222.659 408.672C221.692 409.763 221.179 411.183 221.224 412.64C221.242 414.089 221.821 415.475 222.839 416.506C223.301 417.007 223.864 417.404 224.492 417.67C225.119 417.937 225.796 418.066 226.477 418.051C227.158 418.036 227.829 417.876 228.443 417.581C229.058 417.287 229.603 416.865 230.042 416.344C230.992 415.254 231.494 413.845 231.447 412.4H231.477Z" fill="#265428"/>
<path d="M254.185 416.272C254.258 416.418 254.302 416.577 254.313 416.741C254.324 416.904 254.302 417.068 254.249 417.223C254.196 417.378 254.113 417.52 254.004 417.642C253.895 417.765 253.763 417.864 253.615 417.934C253.461 417.999 253.3 418.044 253.135 418.066C252.828 418.11 252.515 418.064 252.234 417.934C251.911 417.777 251.633 417.542 251.424 417.25C250.948 416.458 250.664 415.566 250.595 414.645C250.549 414.308 250.414 413.989 250.205 413.72C249.998 413.481 249.739 413.29 249.449 413.162C249.031 412.971 248.585 412.847 248.128 412.796L245.505 413.15L246.147 417.952C246.187 418.28 246.095 418.61 245.893 418.87C245.691 419.131 245.394 419.302 245.067 419.345C244.742 419.388 244.414 419.3 244.154 419.1C243.894 418.901 243.724 418.607 243.68 418.283L241.903 405.155C241.877 404.993 241.884 404.828 241.924 404.669C241.964 404.511 242.036 404.362 242.136 404.232C242.235 404.102 242.36 403.994 242.503 403.914C242.646 403.834 242.803 403.785 242.966 403.768L246.928 403.24C247.909 403.108 248.906 403.283 249.784 403.74C250.662 404.197 251.378 404.914 251.832 405.793C252.287 406.672 252.459 407.67 252.325 408.651C252.19 409.632 251.756 410.547 251.082 411.271C251.417 411.458 251.718 411.702 251.97 411.992C252.551 412.633 252.92 413.438 253.027 414.297C253.064 414.74 253.152 415.177 253.291 415.599C253.483 415.63 253.665 415.708 253.821 415.825C253.977 415.942 254.102 416.095 254.185 416.272ZM249.881 407.742C249.843 407.438 249.746 407.145 249.594 406.879C249.443 406.613 249.24 406.38 248.998 406.193C248.755 406.006 248.478 405.869 248.183 405.79C247.888 405.711 247.579 405.69 247.276 405.731L244.539 406.097L245.139 410.683L247.876 410.317C248.483 410.24 249.035 409.926 249.411 409.444C249.787 408.961 249.956 408.349 249.881 407.742Z" fill="#265428"/>
<path d="M274.468 412.502L270.723 399.788C270.672 399.633 270.654 399.469 270.669 399.307C270.684 399.144 270.732 398.987 270.811 398.843C270.889 398.7 270.995 398.574 271.123 398.473C271.252 398.373 271.399 398.299 271.557 398.257H271.599L278.58 396.204C278.894 396.113 279.231 396.15 279.518 396.306C279.804 396.462 280.018 396.726 280.111 397.039C280.203 397.355 280.168 397.694 280.013 397.985C279.859 398.275 279.596 398.494 279.283 398.594L273.448 400.316L274.606 404.254L279.661 402.753C279.818 402.707 279.984 402.692 280.147 402.709C280.311 402.727 280.469 402.776 280.613 402.855C280.758 402.933 280.885 403.039 280.989 403.167C281.092 403.295 281.169 403.442 281.215 403.6C281.262 403.757 281.277 403.923 281.26 404.086C281.242 404.25 281.193 404.408 281.114 404.552C281.036 404.697 280.929 404.824 280.802 404.928C280.674 405.031 280.527 405.108 280.369 405.155L275.345 406.631L276.545 410.593L282.386 408.876C282.704 408.783 283.047 408.82 283.338 408.98C283.629 409.139 283.845 409.407 283.938 409.726C284.031 410.044 283.994 410.386 283.834 410.677C283.675 410.968 283.407 411.184 283.088 411.277L276.059 413.318C276.017 413.318 276.011 413.318 276.011 413.318C275.856 413.366 275.693 413.384 275.532 413.369C275.37 413.354 275.213 413.307 275.07 413.231C274.927 413.155 274.8 413.052 274.696 412.926C274.593 412.801 274.516 412.657 274.468 412.502Z" fill="#265428"/>
<path d="M297.387 405.797C297.326 405.777 297.264 405.763 297.201 405.755C297.201 405.755 297.171 405.755 297.153 405.701C297.096 405.681 297.044 405.653 296.997 405.617C296.946 405.569 296.89 405.529 296.828 405.497L286.756 395.454C286.526 395.223 286.397 394.911 286.397 394.585C286.398 394.259 286.528 393.946 286.759 393.716C286.99 393.486 287.303 393.357 287.628 393.358C287.954 393.358 288.267 393.489 288.497 393.719L296.468 401.661L296.57 390.382C296.592 390.068 296.732 389.774 296.962 389.56C297.192 389.345 297.495 389.226 297.81 389.226C298.125 389.226 298.427 389.345 298.657 389.56C298.888 389.774 299.028 390.068 299.049 390.382L298.869 404.62C298.881 404.688 298.881 404.757 298.869 404.824C298.869 404.824 298.821 404.938 298.815 404.986C298.809 405.034 298.815 405.04 298.815 405.071C298.815 405.101 298.761 405.167 298.737 405.221L298.701 405.263C298.668 405.323 298.628 405.38 298.581 405.431C298.581 405.431 298.581 405.431 298.545 405.473C298.489 405.499 298.438 405.536 298.395 405.581H298.353C298.293 405.625 298.226 405.66 298.155 405.683C298.087 405.717 298.014 405.74 297.939 405.749H297.897C297.838 405.737 297.776 405.737 297.717 405.749L297.483 405.701L297.387 405.797Z" fill="#265428"/>
<path d="M311.937 398.137L305.719 386.438C305.638 386.296 305.587 386.139 305.569 385.977C305.551 385.814 305.566 385.65 305.614 385.494C305.662 385.338 305.741 385.193 305.847 385.068C305.952 384.944 306.082 384.842 306.229 384.769H306.271L312.694 381.354C312.984 381.204 313.322 381.173 313.635 381.268C313.948 381.364 314.211 381.577 314.368 381.864C314.517 382.154 314.549 382.49 314.457 382.802C314.366 383.115 314.158 383.381 313.876 383.545L308.474 386.402L310.407 390.004L315.023 387.549C315.314 387.403 315.65 387.375 315.962 387.47C316.273 387.565 316.537 387.776 316.698 388.059C316.852 388.351 316.886 388.692 316.791 389.008C316.697 389.325 316.482 389.592 316.193 389.752L311.577 392.207L313.516 395.856L318.889 392.999C319.181 392.84 319.524 392.803 319.843 392.897C320.162 392.991 320.431 393.208 320.59 393.5C320.75 393.792 320.786 394.136 320.692 394.455C320.598 394.774 320.381 395.043 320.089 395.202L313.666 398.618C313.624 398.618 313.612 398.618 313.612 398.618C313.326 398.775 312.99 398.812 312.676 398.722C312.362 398.633 312.097 398.422 311.937 398.137Z" fill="#265428"/>
<path d="M336.855 382.476C336.984 382.576 337.093 382.701 337.174 382.843C337.256 382.985 337.308 383.142 337.328 383.304C337.348 383.467 337.336 383.632 337.291 383.79C337.247 383.947 337.172 384.095 337.071 384.223C336.962 384.349 336.837 384.46 336.699 384.553C336.441 384.728 336.139 384.826 335.828 384.835C335.469 384.832 335.115 384.743 334.796 384.577C334.026 384.065 333.382 383.386 332.911 382.59C332.723 382.308 332.461 382.082 332.155 381.936C331.864 381.808 331.548 381.748 331.23 381.762C330.772 381.773 330.318 381.856 329.885 382.008L327.683 383.491L330.378 387.549C330.563 387.826 330.631 388.166 330.565 388.494C330.5 388.822 330.307 389.11 330.03 389.295C329.752 389.481 329.412 389.548 329.084 389.483C328.756 389.418 328.468 389.225 328.283 388.947L320.959 377.908C320.864 377.775 320.797 377.623 320.763 377.463C320.728 377.302 320.727 377.137 320.759 376.976C320.791 376.815 320.856 376.662 320.949 376.527C321.042 376.392 321.162 376.278 321.302 376.191L324.633 373.982C325.16 373.632 325.752 373.388 326.373 373.267C326.994 373.146 327.634 373.148 328.254 373.275C328.874 373.402 329.464 373.65 329.988 374.005C330.512 374.36 330.961 374.816 331.308 375.345C331.702 375.931 331.96 376.598 332.064 377.297C332.168 377.996 332.115 378.709 331.908 379.385C332.292 379.408 332.67 379.495 333.025 379.643C333.827 379.965 334.511 380.527 334.982 381.252C335.209 381.635 335.481 381.99 335.792 382.308C335.97 382.252 336.159 382.237 336.343 382.267C336.528 382.296 336.703 382.368 336.855 382.476ZM329.243 376.696C329.077 376.439 328.861 376.219 328.609 376.046C328.357 375.874 328.073 375.753 327.774 375.691C327.474 375.629 327.166 375.627 326.866 375.685C326.566 375.743 326.28 375.86 326.026 376.029L323.727 377.542L326.284 381.402L328.583 379.871C329.089 379.535 329.442 379.014 329.566 378.419C329.69 377.825 329.574 377.205 329.243 376.696Z" fill="#265428"/>
<path d="M344.652 361.539L345.024 369.342L348.83 374.066C348.936 374.191 349.016 374.335 349.064 374.491C349.112 374.647 349.128 374.811 349.111 374.974C349.093 375.136 349.043 375.293 348.963 375.436C348.882 375.578 348.774 375.702 348.644 375.801C348.387 376.003 348.061 376.097 347.736 376.062C347.411 376.027 347.112 375.867 346.903 375.615L343.104 370.891L335.594 368.838C335.437 368.801 335.29 368.733 335.16 368.638C335.03 368.542 334.921 368.422 334.839 368.284C334.756 368.145 334.703 367.992 334.681 367.832C334.659 367.673 334.67 367.511 334.712 367.355C334.751 367.199 334.822 367.052 334.919 366.923C335.017 366.795 335.14 366.687 335.28 366.607C335.42 366.527 335.574 366.476 335.735 366.457C335.895 366.438 336.057 366.452 336.212 366.497L342.497 368.178L342.191 361.677C342.183 361.512 342.208 361.348 342.264 361.193C342.32 361.039 342.407 360.897 342.519 360.776C342.631 360.655 342.765 360.558 342.915 360.49C343.065 360.422 343.227 360.385 343.392 360.38C343.709 360.378 344.016 360.496 344.25 360.711C344.484 360.926 344.628 361.222 344.652 361.539Z" fill="#265428"/>
<path d="M357.414 349.143C359.528 349.21 361.535 350.087 363.02 351.592C364.506 353.097 365.357 355.114 365.398 357.229C365.439 358.241 365.272 359.25 364.905 360.195C364.538 361.139 363.981 361.997 363.267 362.715C362.529 363.437 361.652 364.001 360.689 364.371C359.726 364.742 358.697 364.912 357.666 364.87C355.564 364.768 353.576 363.88 352.097 362.383C350.618 360.886 349.754 358.888 349.677 356.785C349.644 355.751 349.825 354.722 350.208 353.761C350.591 352.801 351.169 351.929 351.904 351.202C352.629 350.495 353.493 349.947 354.442 349.592C355.391 349.238 356.403 349.085 357.414 349.143ZM361.202 353.393C360.179 352.358 358.807 351.744 357.354 351.67C356.685 351.629 356.014 351.728 355.386 351.962C354.757 352.196 354.184 352.558 353.704 353.027C353.215 353.505 352.832 354.081 352.58 354.717C352.328 355.353 352.212 356.035 352.24 356.719C352.281 358.176 352.88 359.562 353.914 360.59C354.922 361.633 356.295 362.245 357.744 362.295C358.422 362.34 359.101 362.241 359.738 362.004C360.374 361.767 360.953 361.398 361.437 360.921C361.92 360.444 362.297 359.87 362.542 359.236C362.787 358.603 362.895 357.925 362.859 357.247C362.812 355.799 362.22 354.423 361.202 353.393Z" fill="#265428"/>
<path d="M375.566 347.594C375.692 347.695 375.796 347.819 375.873 347.96C375.951 348.101 375.999 348.255 376.017 348.415C376.035 348.575 376.02 348.736 375.976 348.891C375.931 349.045 375.856 349.189 375.755 349.314C375.655 349.439 375.531 349.544 375.39 349.621C375.249 349.698 375.094 349.747 374.935 349.765C374.775 349.782 374.613 349.768 374.459 349.723C374.305 349.679 374.161 349.604 374.036 349.503L363.867 341.328C363.704 341.211 363.574 341.055 363.487 340.875C363.4 340.694 363.359 340.495 363.369 340.295C363.389 339.973 363.534 339.671 363.772 339.454C364.011 339.237 364.325 339.121 364.647 339.131L377.019 339.767L369.816 333.974C369.69 333.875 369.586 333.753 369.508 333.613C369.431 333.473 369.382 333.32 369.364 333.161C369.347 333.002 369.362 332.842 369.407 332.688C369.453 332.535 369.528 332.393 369.63 332.269C369.833 332.017 370.128 331.855 370.449 331.817C370.771 331.779 371.095 331.868 371.352 332.065L381.521 340.235C381.775 340.442 381.937 340.74 381.973 341.066C382.009 341.392 381.916 341.718 381.713 341.976C381.598 342.111 381.456 342.219 381.295 342.294C381.134 342.368 380.96 342.407 380.783 342.408C380.725 342.42 380.666 342.42 380.609 342.408L368.333 341.76L375.566 347.594Z" fill="#265428"/>
<path d="M386.875 332.726L375.812 325.45C375.673 325.365 375.553 325.251 375.459 325.117C375.365 324.983 375.299 324.832 375.266 324.671C375.233 324.511 375.233 324.346 375.266 324.186C375.299 324.025 375.364 323.874 375.458 323.74V323.704L379.456 317.629C379.637 317.356 379.918 317.167 380.239 317.1C380.559 317.034 380.892 317.097 381.167 317.275C381.44 317.457 381.632 317.739 381.702 318.061C381.771 318.382 381.713 318.718 381.539 318.997L378.195 324.082L381.629 326.339L384.504 321.969C384.686 321.693 384.969 321.501 385.292 321.435C385.615 321.368 385.952 321.433 386.227 321.615C386.503 321.796 386.695 322.08 386.761 322.403C386.827 322.726 386.763 323.062 386.581 323.337L383.712 327.707L387.164 329.976L390.507 324.892C390.689 324.617 390.974 324.425 391.297 324.359C391.621 324.293 391.957 324.359 392.233 324.541C392.508 324.723 392.7 325.007 392.766 325.331C392.832 325.655 392.766 325.991 392.584 326.267L388.592 332.341C388.592 332.377 388.544 332.341 388.544 332.341C388.461 332.477 388.351 332.595 388.222 332.688C388.092 332.781 387.946 332.848 387.79 332.883C387.635 332.919 387.474 332.924 387.317 332.897C387.16 332.869 387.01 332.811 386.875 332.726Z" fill="#265428"/>
<path fill-rule="evenodd" clip-rule="evenodd" d="M348.692 193.186C356.556 185.821 360.451 177.669 361.184 168.017C361.226 167.477 361.448 166.948 361.526 166.408C362.486 159.133 365.728 155.393 370.404 156.203C375.08 157.014 377.157 161.864 375.998 168.761C374.072 180.238 363.177 190.323 348.692 193.186Z" fill="#F2F490"/>
<path fill-rule="evenodd" clip-rule="evenodd" d="M365.302 197.406C374.858 192.25 384.324 188.06 394.775 194.447C396.016 195.204 397.15 196.122 398.149 197.178C401.99 201.224 402.435 205.858 399.379 208.889C396.66 211.597 392.05 211.212 388.346 207.473C385.356 204.361 381.782 201.87 377.827 200.143C373.873 198.415 369.616 197.485 365.302 197.406Z" fill="#F2F490"/>
<path fill-rule="evenodd" clip-rule="evenodd" d="M390.789 180.01C389.048 183.414 385.987 184.584 382.656 183.066C379.324 181.547 377.949 178.6 379.558 174.89C381.167 171.18 384.252 170.298 387.656 171.762C391.059 173.227 392.266 176.192 390.789 180.01Z" fill="#F2F490"/>
<path fill-rule="evenodd" clip-rule="evenodd" d="M96.8596 196.741C84.3971 192.135 73.2675 192.329 62.2145 196.847C61.6247 197.101 60.8934 197.148 60.2564 197.366C51.7042 200.315 45.7826 198.794 44.1193 193.196C42.4561 187.599 46.626 182.627 54.8774 180.103C68.5844 175.909 85.7182 182.356 96.8596 196.741Z" fill="#F2F490"/>
<path fill-rule="evenodd" clip-rule="evenodd" d="M92.3535 176.11C81.3949 168.442 71.5511 160.291 72.825 145.245C72.9796 143.459 73.3662 141.7 73.9752 140.014C76.3344 133.526 81.1826 130.506 86.2136 132.199C90.702 133.703 92.8194 138.999 90.7433 145.139C87.1809 155.673 87.6704 165.894 92.3535 176.11Z" fill="#F2F490"/>
<path fill-rule="evenodd" clip-rule="evenodd" d="M60.2858 155.832C65.0043 155.874 67.9533 158.581 68.142 163.116C68.3131 167.563 65.8182 170.784 60.8403 171.043C55.8623 171.303 53.1728 168.395 52.9192 163.842C52.6479 159.182 55.2961 156.31 60.2858 155.832Z" fill="#F2F490"/>
<path d="M210.185 64.5838C212.294 64.5838 214.003 62.8772 214.003 60.772C214.003 58.6669 212.294 56.9603 210.185 56.9603C208.077 56.9603 206.367 58.6669 206.367 60.772C206.367 62.8772 208.077 64.5838 210.185 64.5838Z" fill="#F2F490"/>
<path fill-rule="evenodd" clip-rule="evenodd" d="M362.36 139.27C362.35 140.28 362.04 141.265 361.471 142.1C360.901 142.935 360.098 143.583 359.161 143.962C358.224 144.341 357.196 144.435 356.206 144.23C355.216 144.026 354.309 143.534 353.599 142.815C352.888 142.096 352.406 141.183 352.214 140.191C352.021 139.199 352.126 138.172 352.516 137.24C352.906 136.307 353.564 135.511 354.405 134.952C355.247 134.392 356.235 134.094 357.246 134.095C357.922 134.098 358.59 134.235 359.213 134.497C359.836 134.759 360.401 135.141 360.877 135.622C361.352 136.102 361.727 136.672 361.982 137.298C362.236 137.924 362.365 138.594 362.36 139.27Z" fill="#F2F490"/>
<path fill-rule="evenodd" clip-rule="evenodd" d="M257.313 107.455C257.302 108.466 256.992 109.451 256.423 110.286C255.854 111.121 255.05 111.769 254.113 112.148C253.176 112.527 252.148 112.62 251.158 112.416C250.169 112.212 249.261 111.719 248.551 111.001C247.84 110.282 247.358 109.369 247.166 108.377C246.973 107.385 247.079 106.358 247.469 105.425C247.859 104.493 248.516 103.697 249.358 103.137C250.199 102.578 251.188 102.28 252.198 102.281C252.874 102.284 253.543 102.42 254.166 102.682C254.789 102.944 255.354 103.326 255.829 103.807C256.304 104.288 256.679 104.857 256.934 105.483C257.189 106.109 257.317 106.779 257.313 107.455Z" fill="#F2F490"/>
<path d="M169.928 342.485C170.035 340.382 168.414 338.591 166.309 338.484C164.203 338.377 162.409 339.995 162.302 342.097C162.196 344.199 163.816 345.991 165.922 346.098C168.027 346.205 169.821 344.587 169.928 342.485Z" fill="#F2F490"/>
<path fill-rule="evenodd" clip-rule="evenodd" d="M108.235 340.649C104.309 333.962 100.629 327.155 98.1442 319.766C102.672 325.161 107.502 330.296 112.611 335.145C123.476 345.427 136.7 351.004 152.061 352.487C155.384 352.741 158.686 353.229 161.941 353.945C166.665 355.08 169.096 358.645 169.144 363.718C169.174 367.92 166.701 371.275 162.289 372.878C140.734 379.601 116.483 354.678 108.235 340.649Z" fill="#F2F490"/>
<path d="M57.3737 265.165C69.205 273.569 80.3941 272.248 90.8209 259.408C90.9656 259.227 91.0623 259.012 91.1018 258.783C91.1414 258.554 91.1226 258.319 91.0472 258.099C90.9718 257.88 90.8422 257.683 90.6704 257.526C90.4987 257.37 90.2903 257.26 90.0645 257.205C78.7674 254.018 67.6563 254.66 57.6978 262.77C56.9595 263.394 56.5453 264.583 57.3737 265.165Z" fill="#265428"/>
<path d="M79.3016 213.667C93.5281 216.471 100.311 225.475 98.1682 241.88C98.1355 242.109 98.0458 242.326 97.9073 242.512C97.7688 242.697 97.586 242.844 97.3757 242.941C97.1653 243.037 96.9342 243.079 96.7035 243.062C96.4727 243.046 96.2498 242.972 96.0552 242.847C85.9586 236.844 78.7734 228.356 77.7949 215.552C77.7169 214.586 78.3052 213.487 79.3016 213.667Z" fill="#265428"/>
<path d="M93.6602 248.483C81.0545 231.292 64.9551 226.657 45.0681 235.836C43.6755 236.478 43.7655 238.621 44.978 239.383C60.225 248.886 75.9461 253.189 91.9914 251.629C93.4381 251.485 94.5846 249.744 93.6602 248.483Z" fill="#265428"/>
<path d="M140.379 213.704C141.669 213.704 142.714 212.658 142.714 211.368C142.714 210.079 141.669 209.033 140.379 209.033C139.09 209.033 138.044 210.079 138.044 211.368C138.044 212.658 139.09 213.704 140.379 213.704Z" fill="#F2F490"/>
<path fill-rule="evenodd" clip-rule="evenodd" d="M220.978 250.086C220.978 250.995 220.708 251.884 220.203 252.641C219.698 253.397 218.98 253.986 218.14 254.334C217.299 254.682 216.375 254.773 215.483 254.596C214.591 254.418 213.772 253.98 213.129 253.337C212.486 252.694 212.048 251.875 211.87 250.983C211.693 250.091 211.784 249.167 212.132 248.326C212.48 247.486 213.069 246.768 213.825 246.263C214.582 245.758 215.471 245.488 216.38 245.488C216.984 245.487 217.582 245.606 218.14 245.836C218.699 246.067 219.206 246.406 219.633 246.833C220.06 247.26 220.399 247.767 220.63 248.326C220.86 248.884 220.979 249.482 220.978 250.086Z" fill="#F2F490"/>
<path fill-rule="evenodd" clip-rule="evenodd" d="M147.211 229.323C147.211 230.015 147.005 230.691 146.621 231.267C146.236 231.842 145.69 232.291 145.05 232.556C144.411 232.821 143.707 232.89 143.028 232.755C142.349 232.62 141.726 232.287 141.236 231.797C140.747 231.308 140.414 230.684 140.279 230.005C140.144 229.326 140.213 228.623 140.478 227.983C140.743 227.344 141.191 226.797 141.767 226.413C142.342 226.028 143.019 225.823 143.711 225.823C144.639 225.823 145.529 226.192 146.186 226.848C146.842 227.504 147.211 228.394 147.211 229.323Z" fill="#F2F490"/>
<path d="M199.062 266.642C200.352 266.642 201.397 265.596 201.397 264.307C201.397 263.017 200.352 261.971 199.062 261.971C197.772 261.971 196.727 263.017 196.727 264.307C196.727 265.596 197.772 266.642 199.062 266.642Z" fill="#F2F490"/>
<path d="M116.278 238.387C114.167 237.546 112.898 236.152 112.143 234.293C111.342 232.364 110.662 228.962 110.102 224.088C109.537 219.148 108.727 212.569 107.701 204.429C106.674 196.29 105.588 188.27 104.489 180.418C103.204 170.538 102.304 162.938 101.734 157.452C101.164 151.965 100.659 145.573 100.209 138.207C99.945 133.849 99.7449 130.408 99.6088 127.883C99.4828 125.355 99.4407 123.404 99.4768 122.012C99.5316 117.775 101.278 113.241 103.595 109.73C106.308 106.027 109.768 102.884 113.265 99.9338C116.302 97.289 120.812 95.9737 124.79 96.2842C127.154 96.632 129.41 97.5036 131.393 98.8353C137.666 102.389 142.444 109.724 145.47 120.037C147.357 126.567 148.587 133.269 149.143 140.044C149.8 148.09 149.685 156.181 148.801 164.205C146.358 182.904 137.366 193.732 134.551 196.908C132.51 199.387 129.851 201.416 128.044 202.941C127.411 203.47 126.907 204.138 126.572 204.892C126.237 205.647 126.079 206.468 126.111 207.293C126.255 211.014 126.597 218.098 126.579 219.214C126.579 220.727 126.579 222.486 126.693 224.478C126.885 228.344 126.813 231.123 126.477 232.816C126.008 235.392 123.875 238.029 121.231 238.585C119.55 238.856 118.077 239.103 116.278 238.387ZM126.885 183.966C127.99 181.895 129.13 180.502 130.307 176.12C131.428 171.978 132.283 167.767 132.864 163.515C133.14 161.266 133.299 159.003 133.338 156.738C133.338 154.853 133.248 152.066 133.068 148.376C132.972 146.527 132.864 144.936 132.756 143.574C132.648 142.211 132.516 141.137 132.384 140.248C132.096 138.412 131.712 136.593 131.231 134.798C129.713 129.149 127.528 124.755 124.724 121.802C122.539 119.401 120.786 118.344 119.43 118.464C118.445 118.488 117.482 118.756 116.627 119.245C115.723 119.954 115.058 120.924 114.724 122.024C114.577 122.464 114.492 122.923 114.472 123.386C114.437 124.668 114.471 125.95 114.574 127.228C114.73 129.629 114.884 131.81 115.036 133.771C115.198 135.848 115.354 137.919 115.516 139.996C115.968 144.47 116.47 148.822 117.023 153.052C118.027 160.912 119.028 168.147 120.024 174.758C121.021 181.361 121.687 183.444 121.999 184.482C122.599 186.241 123.374 186.979 124.334 186.685C125.066 186.487 125.919 185.581 126.885 183.966Z" fill="url(#paint6_linear_641_3624)"/>
<path d="M223.979 213.061C222.503 211.494 222.225 210.093 221.86 207.971C221.441 205.531 221.618 203.835 222.419 201.656C223.576 198.887 225.935 196.93 228.691 195.845C232.93 194.176 236.943 191.599 239.142 187.496C240.846 184.668 241.508 181.335 241.015 178.071C240.489 174.756 239.344 171.57 237.642 168.677C236.06 165.786 234.218 163.045 232.137 160.489C229.205 156.936 226.068 153.557 222.743 150.369C218.793 146.521 215.864 143.562 213.967 141.413C212.181 139.421 210.574 137.276 209.165 135.002C206.62 130.921 204.972 126.346 204.332 121.58C202.832 111.484 203.735 101.002 206.758 91.2659C209.567 81.9737 213.691 74.4582 219.147 69.0978C220.625 67.6592 222.448 66.6255 224.442 66.0964C225.789 65.7857 227.196 65.8564 228.505 66.3005C230.173 66.9226 231.534 68.169 232.299 69.7761C232.964 71.1009 233.43 72.5169 233.68 73.978C233.813 74.974 233.813 75.9834 233.68 76.9794C233.467 78.4234 232.951 79.8062 232.167 81.0372C231.082 82.6567 229.811 84.1435 228.379 85.4672C223.421 90.4075 220.384 97.6768 219.249 106.987C218.779 109.935 218.74 112.936 219.135 115.895C219.568 119.3 220.94 122.518 223.097 125.187C224.002 126.406 224.986 127.563 226.044 128.651C227.457 130.164 228.98 131.714 230.612 133.303C234.256 136.905 237.167 140.044 239.37 142.637C241.573 145.23 243.572 147.818 245.325 150.357C251.328 159.025 254.827 167.471 255.842 175.604C256.441 180.291 256.216 185.047 255.176 189.657C254.369 192.879 253.127 195.977 251.484 198.865C249.938 201.73 248.008 204.37 245.745 206.71C243.981 208.573 242.412 210.066 239.845 211.609C235.389 214.286 228.25 217.596 223.979 213.061Z" fill="url(#paint7_linear_641_3624)"/>
<path d="M280.537 206.656C278.302 205.743 277.218 204.016 276.729 201.652C275.951 197.891 275.959 196.088 275.951 193.33C275.945 191.361 275.951 188.654 275.987 185.215C275.987 180.957 276.007 173.881 276.047 163.989C276.087 154.096 276.131 143.652 276.179 132.655C276.179 131.082 276.179 129.545 276.179 128.039C276.239 120.763 276.269 114.779 276.269 110.084C276.269 105.39 276.239 101.713 276.179 99.0514C276.107 96.3862 276.017 94.4233 275.897 93.1567C275.855 92.2651 275.651 91.3886 275.297 90.5696C275.058 90.1469 274.72 89.7885 274.312 89.5251L274.024 89.255C273.49 88.8212 272.879 88.4914 272.223 88.2825C271.485 88.0124 270.693 87.7603 269.822 87.5382C269.054 87.214 257.451 84.6329 256.268 84.6028C254.407 84.2607 253.021 84.0326 252.108 83.8825C251.391 83.7798 250.692 83.5777 250.031 83.2823C249.526 83.0308 249.055 82.714 248.633 82.3398C246.231 80.497 245.031 77.7717 245.031 74.1041C245.021 73.2246 245.095 72.3462 245.253 71.4809C245.403 70.7936 245.654 70.1321 245.997 69.518C247.402 67.225 249.917 66.0184 253.537 66.0424C255.091 65.9584 269.108 69.0018 274.018 70.5805C278.779 71.8867 283.462 73.4599 288.046 75.2926C295.738 78.4545 303.17 82.2137 310.275 86.5357C317.024 90.6151 323.477 95.1665 329.585 100.156C330.534 100.956 331.476 101.745 332.413 102.521C334.322 104.161 336.51 106.199 337.935 107.791C341.353 111.612 342.239 114.332 342.239 117.948C342.254 118.744 342.156 119.422 341.731 120.238C341.596 120.498 341.468 120.674 341.285 120.841C341.101 121.008 341.076 121.065 340.642 121.195C340.209 121.326 339.522 121.166 338.768 120.936C338.246 120.777 337.758 120.57 337.359 120.325C336.867 120.043 336.158 119.563 335.216 118.896C334.273 118.23 332.953 117.264 331.218 116.021C324.728 111.33 317.931 107.076 310.875 103.289C301.733 98.2711 292.495 94.8375 292.236 94.8855C291.972 94.978 291.733 95.1323 291.54 95.3357C291.264 95.6002 291.045 95.9191 290.898 96.2722C290.769 96.481 290.678 96.7105 290.628 96.9505C290.515 97.4806 290.441 98.0183 290.406 98.5592C290.34 99.3275 290.292 100.474 290.256 101.987C290.219 103.499 290.177 105.588 290.135 108.182C290.093 110.775 290.051 114.124 290.003 118.17C289.955 122.216 289.907 127.096 289.865 132.817C289.823 138.537 289.781 145.284 289.733 153.064C289.645 164.669 289.563 173.959 289.487 180.935C289.427 186.488 289.363 192.041 289.205 197.592C288.989 202.592 288.505 205.776 284.619 206.818C283.078 207.232 282.014 207.26 280.537 206.656Z" fill="url(#paint8_linear_641_3624)"/>
<path d="M316.019 206.386C312.117 204.549 308.972 201.524 306.595 197.202C301.468 186.692 300.667 174.998 300.958 163.497C302.339 143.796 305.484 129.851 310.245 122.384C314.768 115.299 320.681 115.319 326.416 120.727C334.887 128.719 339.331 140.167 340.624 151.587C341.515 160.615 341.098 169.765 339.49 178.69C337.863 188.252 335.792 195.329 333.319 199.765C329.784 206.106 322.882 209.374 316.019 206.386ZM320.857 195.113C331.81 191.915 332.078 172.916 331.443 156.531C330.986 144.759 327.772 127.128 318.556 132.412C314.218 134.899 312.604 142.558 311.975 151.587C311.391 159.959 311.28 169.314 312.63 180.102C312.958 182.724 314.44 196.987 320.857 195.113Z" fill="url(#paint9_linear_641_3624)"/>
<path d="M159.294 78.6356C160.098 77.3308 161.144 76.192 162.376 75.2806C163.732 74.284 165.224 73.4878 166.807 72.9163L166.812 72.9145C168.57 72.2709 169.844 71.8384 170.63 71.5861C173.179 70.776 176.358 69.904 180.19 69.0839C183.259 68.4432 186.361 67.9734 189.482 67.6768C191.544 67.5139 192.875 67.6512 193.615 67.9232C194.443 68.2383 195.18 68.7521 195.762 69.4192C197.233 71.1953 198.032 73.4315 198.022 75.7374L198.022 75.7446L198.022 75.7518C198.041 78.2749 197.277 80.7417 195.836 82.8127L195.819 82.8375L195.803 82.863C194.933 84.2567 193.657 85.3502 192.147 85.9963L192.137 86.0007L192.127 86.0053C190.45 86.7599 187.402 87.5815 182.897 88.664L182.884 88.6671L182.871 88.6705C180.067 89.4106 177.976 90.0653 176.579 90.5648C175.385 90.935 174.273 91.532 173.305 92.3234L173.263 92.3575L173.225 92.3953C172.483 93.122 171.91 94.0033 171.547 94.9765L171.525 95.0362L171.509 95.098C171.156 96.4784 170.954 99.1137 170.861 102.861C170.768 106.656 170.786 111.718 170.914 118.038C171.014 123.15 171.194 129.029 171.455 135.673L171.455 135.678C171.683 140.998 171.883 145.243 172.056 148.411C172.228 151.57 172.368 153.993 172.476 155.675C172.547 156.948 172.696 158.215 172.924 159.47C173.041 160.18 173.283 160.865 173.637 161.492C174.069 162.436 174.746 163.248 175.598 163.844L175.674 163.897L175.757 163.938C176.878 164.488 178.122 164.738 179.368 164.662C180.852 164.69 182.991 164.578 185.749 164.364C188.035 164.209 189.776 164.151 190.981 164.163L190.998 164.163L191.016 164.163C191.874 164.146 192.731 164.22 193.573 164.383C194.081 164.503 194.573 164.681 195.041 164.912C197.451 166.414 198.58 167.948 198.846 169.398L198.848 169.412L198.851 169.427C199.12 170.715 199.292 172.022 199.366 173.337C199.356 175.553 198.744 177.726 197.595 179.622L197.577 179.652L197.561 179.683C196.807 181.109 195.618 182.257 194.167 182.961C192.8 183.566 190.338 184.057 186.718 184.385L186.71 184.386L186.702 184.387C184.235 184.645 182.31 184.918 180.935 185.197C179.753 185.384 178.621 185.807 177.607 186.442L177.571 186.464L177.538 186.488C176.73 187.074 176.114 187.884 175.764 188.818C175.207 190.144 175.024 192.196 175.08 194.785L175.08 194.793L175.08 194.801C175.199 198.188 175.507 201.565 176.001 204.918C176.331 207.962 176.768 210.404 177.331 212.209C177.613 213.114 177.939 213.899 178.323 214.531C178.7 215.15 179.18 215.7 179.807 216.028C181.17 216.78 182.695 217.19 184.251 217.221L184.284 217.222L184.316 217.221C186.814 217.137 190.009 216.161 193.838 214.423C194.189 214.271 194.503 214.135 194.789 214.011C197.107 213.005 197.525 212.823 199.72 212.176C201.381 211.687 203.386 211.938 204.96 212.839C209.097 215.727 208.909 220.083 207.616 224.617C207.188 226.118 206.589 226.994 205.388 228.047C203.147 230.011 198.239 231.898 194.959 233.188L194.955 233.19C194.955 233.19 190.821 234.748 189.214 235.221C187.427 235.704 185.58 235.932 183.728 235.896L183.717 235.896H182.719L182.705 235.896C180.681 235.944 178.661 235.712 176.701 235.207C169.819 232.863 165.595 228.034 163.125 216.625C162.147 212.102 161.138 203.533 160.092 190.908C159.049 178.302 158.191 165.685 157.532 153.014C156.872 140.336 156.422 129.501 156.206 120.459L156.206 120.457C156.111 116.614 156.051 112.916 156.027 109.362L156.027 109.356L156.027 109.351C155.903 101.793 155.915 96.0622 156.062 92.1453C156.209 88.2166 156.542 85.387 157.029 83.5906L157.03 83.5891C157.502 81.8396 158.258 80.1796 159.268 78.6753L159.282 78.6557L159.294 78.6356Z" fill="url(#paint10_linear_641_3624)"/>
<path d="M71.2472 86.574C71.4567 86.299 71.7185 86.1453 72.0329 86.113C72.3472 86.0808 72.6419 86.1694 72.9169 86.3789L82.9396 94.0123C83.2376 94.2392 83.4112 94.5344 83.4604 94.8978C83.5068 95.2411 83.4166 95.5617 83.1896 95.8597C83.0761 96.0087 82.9354 96.1459 82.7673 96.2715C82.5965 96.3768 82.4348 96.4347 82.282 96.4451L69.4657 96.6531L76.8063 102.244C77.0813 102.453 77.2407 102.72 77.2844 103.043C77.3369 103.354 77.254 103.653 77.0358 103.94C76.8263 104.215 76.5644 104.368 76.2501 104.401C75.9358 104.433 75.6411 104.344 75.366 104.135L65.3433 96.5014C65.0453 96.2745 64.8731 95.9894 64.8267 95.6462C64.7775 95.2828 64.8664 94.9521 65.0933 94.6541C65.2155 94.4936 65.3765 94.3536 65.5762 94.2341C65.7644 94.1058 65.9521 94.0496 66.1393 94.0653L78.8876 93.887L71.4898 88.2528C71.2147 88.0433 71.0509 87.7827 70.9985 87.4712C70.946 87.1596 71.0289 86.8605 71.2472 86.574Z" fill="#265428"/>
<path d="M63.7799 107.747C64.6565 108.379 65.3695 109.115 65.9187 109.954C66.4679 110.794 66.8411 111.693 67.0381 112.652C67.2319 113.59 67.2271 114.546 67.0239 115.518C66.829 116.479 66.42 117.391 65.7968 118.256C65.1736 119.121 64.4373 119.798 63.5879 120.287C62.7384 120.776 61.8337 121.083 60.8735 121.208C59.9101 121.313 58.9433 121.238 57.973 120.983C57.0026 120.727 56.0792 120.284 55.2025 119.652C54.3259 119.021 53.6129 118.285 53.0637 117.445C52.5145 116.606 52.143 115.717 51.9492 114.778C51.7521 113.819 51.751 112.86 51.9459 111.899C52.1408 110.939 52.5498 110.026 53.173 109.161C53.7962 108.296 54.5325 107.619 55.3819 107.13C56.2397 106.63 57.1504 106.327 58.1138 106.222C59.0739 106.097 60.0391 106.162 61.0094 106.417C61.9797 106.672 62.9032 107.116 63.7799 107.747ZM62.1377 110.027C61.3545 109.462 60.5337 109.111 59.6751 108.972C58.8048 108.824 57.9848 108.89 57.2149 109.17C56.4451 109.45 55.7991 109.952 55.2769 110.677C54.7548 111.402 54.4828 112.173 54.4611 112.992C54.4393 113.811 54.6303 114.606 55.0341 115.376C55.4464 116.135 56.0499 116.8 56.8447 117.373C57.6279 117.937 58.4504 118.299 59.3122 118.458C60.1708 118.597 60.985 118.527 61.7548 118.247C62.5247 117.967 63.1707 117.465 63.6928 116.74C64.215 116.016 64.4869 115.244 64.5087 114.425C64.5305 113.606 64.3394 112.812 63.9356 112.041C63.5201 111.262 62.9208 110.591 62.1377 110.027Z" fill="#265428"/>
<path d="M53.5529 137.251C53.8944 137.148 54.1655 136.922 54.3663 136.572C54.5743 136.21 54.6366 135.855 54.5533 135.508C54.4647 135.142 54.2579 134.865 53.9331 134.679L44.1122 129.042L45.801 126.1C45.9875 125.775 46.048 125.452 45.9825 125.132C45.9116 124.793 45.7138 124.53 45.3889 124.343C45.0641 124.157 44.7371 124.119 44.4081 124.229C44.0863 124.326 43.8322 124.538 43.6457 124.863L38.8695 133.184C38.6831 133.509 38.6252 133.841 38.6961 134.181C38.7616 134.501 38.9568 134.754 39.2816 134.94C39.6065 135.127 39.9298 135.171 40.2517 135.074C40.5807 134.963 40.8384 134.746 41.0249 134.421C41.5879 133.44 42.134 132.447 42.7166 131.478C45.9603 133.404 49.2626 135.237 52.5346 137.115C52.8595 137.302 53.1989 137.347 53.5529 137.251Z" fill="#265428"/>
<path d="M45.1435 155.196C44.7664 156.132 44.3135 156.928 43.7847 157.584C43.2426 158.236 42.5402 158.784 41.6776 159.228C41.4606 159.342 41.2397 159.409 41.0149 159.427C40.7901 159.445 40.5842 159.416 40.3971 159.341C40.0898 159.217 39.8657 159.002 39.7247 158.697C39.5758 158.373 39.5686 158.044 39.7033 157.71C39.8056 157.456 39.9774 157.261 40.2185 157.125C40.8374 156.785 41.3534 156.41 41.7665 156.002C42.185 155.58 42.5423 155.002 42.8386 154.267C43.0379 153.773 43.1475 153.289 43.1675 152.815C43.1741 152.337 43.1017 151.919 42.9502 151.563C42.7853 151.201 42.5358 150.953 42.2018 150.818C41.8009 150.657 41.4117 150.64 41.0342 150.767C40.6566 150.895 40.2746 151.168 39.8883 151.587C39.4886 152 39.0817 152.566 38.6678 153.285C38.2701 153.963 37.8539 154.533 37.4192 154.995C36.9713 155.451 36.5048 155.799 36.02 156.039C35.5271 156.259 35.0159 156.372 34.4862 156.376C33.9431 156.374 33.3843 156.258 32.8097 156.026C31.9412 155.676 31.2885 155.156 30.8516 154.468C30.4201 153.766 30.1975 152.969 30.1839 152.078C30.1702 151.187 30.3492 150.281 30.7209 149.359C31.071 148.491 31.5278 147.743 32.0913 147.116C32.6468 146.47 33.2192 145.994 33.8086 145.688C34.2721 145.424 34.7043 145.373 35.1052 145.535C35.3991 145.653 35.6206 145.874 35.7695 146.198C35.9185 146.523 35.931 146.838 35.8071 147.146C35.7263 147.346 35.5935 147.502 35.4086 147.614C35.1353 147.752 34.8458 147.97 34.54 148.266C34.2209 148.557 33.9271 148.881 33.6586 149.239C33.3768 149.591 33.1658 149.941 33.0258 150.288C32.7942 150.863 32.671 151.38 32.6564 151.84C32.6472 152.287 32.7291 152.662 32.9022 152.964C33.0753 153.267 33.3289 153.486 33.6629 153.621C34.0637 153.782 34.4436 153.803 34.8024 153.684C35.1532 153.546 35.4977 153.288 35.8358 152.912C36.1605 152.53 36.5069 152.057 36.8749 151.49C37.3451 150.748 37.8015 150.116 38.2444 149.596C38.6926 149.062 39.1578 148.659 39.6401 148.388C40.109 148.111 40.6243 147.969 41.1862 147.963C41.7346 147.951 42.3496 148.082 43.031 148.357C43.8995 148.707 44.5508 149.249 44.9849 149.983C45.419 150.717 45.6442 151.546 45.6604 152.469C45.6821 153.379 45.5097 154.288 45.1435 155.196Z" fill="#265428"/>
<path d="M81.9048 76.1593L87.0252 71.0418C87.2901 70.777 87.5958 70.6446 87.9421 70.6447C88.2885 70.6245 88.5941 70.7468 88.8589 71.0117C89.1135 71.2665 89.2305 71.567 89.21 71.9134C89.1896 72.2394 89.0469 72.5347 88.7819 72.7995L84.6398 76.9394L87.2367 79.5378L90.6911 76.0854C90.956 75.8206 91.2617 75.6882 91.608 75.6883C91.9544 75.668 92.2599 75.7904 92.5247 76.0553C92.7793 76.3101 92.8964 76.6106 92.8759 76.957C92.8555 77.2829 92.7128 77.5783 92.4478 77.8431L88.9935 81.2955L91.8196 84.1232L95.9617 79.9834C96.2267 79.7186 96.5374 79.5913 96.894 79.6016C97.2505 79.5915 97.5459 79.7037 97.7801 79.938C98.0347 80.1928 98.1518 80.4933 98.1313 80.8397C98.121 81.1758 97.9834 81.4763 97.7185 81.7411L92.5981 86.8586C92.3332 87.1234 92.0224 87.2608 91.6659 87.2709C91.3093 87.2606 90.9987 87.123 90.7339 86.8581L81.9043 78.0235C81.6395 77.7586 81.5071 77.4529 81.5072 77.1066C81.5073 76.7398 81.6399 76.4241 81.9048 76.1593Z" fill="#265428"/>
<path d="M104.221 70.405C103.919 70.627 103.591 70.7163 103.237 70.6727C102.895 70.6207 102.613 70.4438 102.391 70.1422C102.169 69.8405 102.088 69.5243 102.148 69.1934C102.212 68.8425 102.395 68.556 102.696 68.3339L105.725 66.105C106.026 65.883 106.353 65.8038 106.704 65.8674C107.058 65.911 107.346 66.0835 107.568 66.3852C107.781 66.6753 107.856 66.9958 107.793 67.3467C107.732 67.6776 107.551 67.954 107.249 68.176L104.221 70.405Z" fill="#265428"/>
<path d="M124.858 62.2797C123.946 62.8855 122.982 63.2834 121.967 63.4735C120.952 63.6636 119.949 63.664 118.958 63.4745C117.96 63.2731 117.028 62.8979 116.161 62.3491C115.307 61.7922 114.581 61.0638 113.983 60.1638C113.386 59.2638 112.996 58.3122 112.813 57.3089C112.643 56.2978 112.663 55.2989 112.872 54.3123C113.074 53.3137 113.459 52.3834 114.028 51.5213C114.597 50.6591 115.337 49.9252 116.249 49.3194C116.813 48.9447 117.399 48.642 118.007 48.4113C118.614 48.1805 119.22 48.0377 119.823 47.9828C120.067 47.9592 120.287 48.0035 120.482 48.1157C120.682 48.208 120.838 48.3381 120.949 48.5061C121.141 48.7941 121.216 49.1159 121.175 49.4714C121.135 49.827 120.965 50.1044 120.665 50.3037C120.569 50.3674 120.459 50.4232 120.335 50.4709C120.223 50.5107 120.103 50.5385 119.975 50.5542C119.587 50.6215 119.201 50.7307 118.818 50.8819C118.434 51.0331 118.056 51.2323 117.684 51.4794C116.904 51.9975 116.321 52.6698 115.936 53.4963C115.555 54.3028 115.392 55.1636 115.447 56.0787C115.505 56.9738 115.797 57.8174 116.323 58.6094C116.842 59.3894 117.506 59.9859 118.316 60.3988C119.139 60.8037 119.999 60.9929 120.899 60.9665C121.802 60.92 122.643 60.6377 123.423 60.1196C123.783 59.8805 124.155 59.5814 124.54 59.2224C124.852 58.9302 125.103 58.6564 125.291 58.401C124.686 57.4901 123.742 56.0685 123.742 56.0685L122.05 57.1925C121.738 57.3997 121.406 57.4731 121.054 57.4126C120.715 57.3441 120.441 57.1538 120.234 56.8418C120.027 56.5298 119.958 56.2041 120.026 55.8646C120.107 55.5171 120.303 55.2397 120.615 55.0324L123.567 53.0715C123.879 52.8642 124.209 52.8009 124.556 52.8814C124.896 52.9498 125.169 53.1401 125.376 53.4521L127.911 57.2682C128.071 57.5082 128.142 57.7461 128.126 57.9818C128.121 58.2095 128.079 58.4192 127.999 58.6109C127.67 59.3136 127.243 59.9861 126.719 60.6286C126.198 61.251 125.578 61.8014 124.858 62.2797Z" fill="#265428"/>
<path d="M140.103 53.7193C139.744 53.9031 139.368 53.9581 138.974 53.8844C138.574 53.7979 138.288 53.588 138.118 53.2545L132.429 42.1349C132.258 41.8014 132.226 41.4699 132.333 41.1403C132.445 40.7913 132.668 40.5315 133.002 40.3609L138.542 37.5262C139.209 37.185 139.923 37.0463 140.684 37.1101C141.451 37.1546 142.175 37.3992 142.856 37.8439C143.53 38.2758 144.074 38.8957 144.487 39.7037C144.736 40.1911 144.877 40.7181 144.908 41.2848C144.951 41.845 144.895 42.3996 144.739 42.9487C144.641 43.3211 144.321 43.9804 144.321 43.9804C144.321 43.9804 144.845 44.0863 145.079 44.1826C145.454 44.3144 145.785 44.5015 146.07 44.7437C146.362 44.9665 146.61 45.2444 146.813 45.5776C147.028 45.872 147.204 46.1377 147.342 46.3749C147.492 46.6054 147.636 46.7909 147.772 46.9314C147.922 47.0654 148.103 47.1346 148.315 47.139C148.683 47.1614 148.981 47.3165 149.209 47.6043C149.443 47.8728 149.514 48.1846 149.42 48.5398C149.365 48.7787 149.241 48.9796 149.049 49.1425C148.851 49.2925 148.633 49.4041 148.395 49.4771C148.151 49.5374 147.938 49.5651 147.758 49.5603C147.474 49.5436 147.161 49.4692 146.818 49.3371C146.469 49.1921 146.116 48.9441 145.758 48.5931C145.413 48.2354 145.07 47.7232 144.729 47.0563C144.618 46.8382 144.477 46.6591 144.309 46.5189C144.133 46.3659 143.942 46.2614 143.735 46.2053C143.522 46.1364 143.29 46.1257 143.039 46.1731C142.782 46.2077 142.506 46.3004 142.211 46.4514L138.613 48.292L140.523 52.0242C140.693 52.3576 140.748 52.6857 140.686 53.0084C140.618 53.3183 140.424 53.5553 140.103 53.7193ZM137.599 46.3104L141.812 44.1549C142.043 44.0368 142.215 43.8193 142.328 43.5026C142.435 43.173 142.467 42.7925 142.424 42.3613C142.375 41.9171 142.239 41.4771 142.016 41.041C141.727 40.4767 141.333 40.0873 140.835 39.8728C140.344 39.639 139.924 39.6107 139.578 39.7878L135.365 41.9434L137.599 46.3104Z" fill="#265428"/>
<path d="M168.519 34.6729C168.871 35.6944 169.029 36.7064 168.994 37.7091C168.959 38.7118 168.745 39.6616 168.354 40.5587C167.971 41.4374 167.416 42.2153 166.69 42.8926C165.977 43.5651 165.117 44.0751 164.109 44.4227C163.101 44.7702 162.109 44.8989 161.133 44.8088C160.157 44.7186 159.241 44.4479 158.384 43.9966C157.537 43.527 156.79 42.9082 156.144 42.1404C155.498 41.3725 154.999 40.4779 154.647 39.4564C154.295 38.4349 154.136 37.4229 154.171 36.4202C154.207 35.4175 154.416 34.4768 154.798 33.5981C155.19 32.7011 155.742 31.9163 156.455 31.2438C157.168 30.5712 158.029 30.0612 159.036 29.7137C160.044 29.3661 161.036 29.2374 162.012 29.3276C163.002 29.413 163.92 29.6906 164.768 30.1602C165.625 30.6115 166.376 31.2211 167.021 31.9889C167.667 32.7568 168.166 33.6514 168.519 34.6729ZM165.863 35.5887C165.548 34.6762 165.08 33.9157 164.459 33.307C163.833 32.6848 163.124 32.2661 162.334 32.051C161.544 31.8359 160.726 31.874 159.882 32.1652C159.037 32.4563 158.37 32.9302 157.88 33.5868C157.391 34.2434 157.089 35.0028 156.975 35.865C156.874 36.7226 156.983 37.6144 157.303 38.5406C157.618 39.4531 158.081 40.2228 158.694 40.8498C159.315 41.4584 160.021 41.8703 160.811 42.0854C161.602 42.3004 162.419 42.2624 163.263 41.9712C164.108 41.68 164.775 41.2061 165.265 40.5496C165.755 39.893 166.056 39.1336 166.171 38.2713C166.28 37.3954 166.177 36.5012 165.863 35.5887Z" fill="#265428"/>
<path d="M187.529 22.8992C187.891 22.8035 188.216 22.8516 188.505 23.0434C188.791 23.2213 188.981 23.4913 189.077 23.8534L191.076 31.4165C191.381 32.5726 191.401 33.6626 191.135 34.6865C190.884 35.7067 190.392 36.5817 189.661 37.3113C188.93 38.041 187.993 38.5567 186.851 38.8586C185.709 39.1604 184.633 39.1766 183.623 38.9071C182.627 38.6339 181.761 38.1178 181.023 37.3589C180.3 36.5963 179.786 35.637 179.481 34.481L177.482 26.9179C177.386 26.5557 177.432 26.2232 177.62 25.9201C177.805 25.6031 178.092 25.3931 178.482 25.2901C178.802 25.2054 179.121 25.2553 179.438 25.4397C179.765 25.6066 179.977 25.8711 180.072 26.2332L182.071 33.7963C182.255 34.4927 182.562 35.0599 182.99 35.498C183.429 35.9184 183.929 36.2035 184.49 36.3532C185.065 36.4993 185.632 36.4987 186.189 36.3515C186.788 36.1932 187.308 35.9066 187.75 35.4919C188.191 35.0771 188.506 34.5767 188.694 33.9906C188.878 33.3906 188.878 32.7424 188.694 32.046L186.695 24.4829C186.6 24.1207 186.625 23.7937 186.771 23.5017C186.914 23.1957 187.166 22.9949 187.529 22.8992Z" fill="#265428"/>
<path d="M233.073 20.7543C234.11 20.7985 235.022 21.0322 235.812 21.4552C236.601 21.8783 237.254 22.4541 237.771 23.1827C238.303 23.8976 238.686 24.7214 238.92 25.6543C239.169 26.5734 239.272 27.5511 239.228 28.5874C239.168 29.9836 238.862 31.2466 238.309 32.3766C237.756 33.4922 236.984 34.3676 235.99 35.0029C235.011 35.6388 233.824 35.927 232.428 35.8674L227.268 35.647C226.894 35.631 226.582 35.4951 226.333 35.2394C226.1 34.9699 225.991 34.648 226.007 34.2738L226.54 21.7946C226.556 21.4204 226.692 21.1162 226.947 20.8819C227.217 20.6339 227.539 20.5179 227.913 20.5339L233.073 20.7543ZM232.318 33.3753C233.225 33.414 233.976 33.2154 234.571 32.7794C235.167 32.329 235.611 31.7279 235.903 30.9761C236.209 30.2105 236.382 29.3743 236.421 28.4675C236.45 27.7911 236.398 27.1472 236.265 26.5359C236.148 25.9108 235.941 25.3612 235.644 24.8871C235.347 24.3986 234.96 24.0072 234.483 23.7128C234.005 23.4184 233.428 23.2568 232.751 23.2279L229.189 23.0758L228.756 33.2231L232.318 33.3753Z" fill="#265428"/>
<path d="M321.237 63.7912C321.036 64.1076 320.751 64.3021 320.381 64.3746C320.019 64.435 319.685 64.3689 319.381 64.1761C319.04 63.9602 318.832 63.6833 318.756 63.3454C318.688 62.9952 318.754 62.662 318.955 62.3456L325.639 51.7943C325.84 51.4779 326.115 51.2856 326.465 51.2175C326.823 51.1372 327.172 51.205 327.513 51.4209C327.805 51.6059 327.991 51.8774 328.072 52.2352C328.172 52.5886 328.122 52.9235 327.921 53.2399L321.237 63.7912Z" fill="#265428"/>
<path d="M337.009 73.6737C337.319 73.8848 337.505 74.1605 337.57 74.5009C337.654 74.8374 337.591 75.1604 337.379 75.4698C337.177 75.7673 336.899 75.9442 336.547 76.0003C336.214 76.0527 335.894 75.9733 335.584 75.7622L329.783 71.804C329.473 71.5929 329.28 71.3131 329.204 70.9647C329.148 70.6124 329.226 70.2816 329.437 69.9722L336.476 59.6544C336.687 59.345 336.969 59.1622 337.321 59.106C337.682 59.038 338.028 59.1176 338.362 59.345C338.647 59.5398 338.824 59.8174 338.892 60.1778C338.98 60.5344 338.919 60.8674 338.708 61.1768L332.35 70.4949L337.009 73.6737Z" fill="#265428"/>
<path d="M367.488 85.5488C368.024 86.0722 368.373 86.7151 368.534 87.4773C368.706 88.2495 368.68 89.0393 368.455 89.8468C368.23 90.6543 367.801 91.3826 367.166 92.0319C366.542 92.6708 365.829 93.1122 365.027 93.3559C364.225 93.5996 363.431 93.6497 362.645 93.5061C361.879 93.3622 361.229 93.0286 360.693 92.5051L358.003 89.8776L355.149 92.7993C354.887 93.0672 354.583 93.2134 354.237 93.2378C353.901 93.252 353.599 93.1281 353.331 92.8664C353.074 92.6147 352.948 92.3208 352.954 91.9845C352.97 91.6379 353.109 91.3307 353.371 91.0627L362.099 82.1277C362.361 81.8598 362.665 81.7238 363.011 81.7197C363.378 81.7154 363.695 81.8441 363.963 82.1059L367.488 85.5488ZM362.414 90.7428C362.61 90.9341 362.881 91.0379 363.228 91.0542C363.574 91.0705 363.935 91.0102 364.311 90.8734C364.696 90.7263 365.03 90.5084 365.311 90.2198C365.603 89.921 365.813 89.5823 365.941 89.2039C366.069 88.8254 366.116 88.4683 366.082 88.1325C366.057 87.7864 365.947 87.5178 365.751 87.3265L363.011 84.7504L359.724 88.1154L362.414 90.7428Z" fill="#265428"/>
<path d="M377.75 98.3071L382.269 103.963C382.503 104.255 382.601 104.574 382.562 104.918C382.544 105.264 382.389 105.554 382.096 105.788C381.815 106.013 381.503 106.096 381.161 106.038C380.839 105.981 380.562 105.807 380.328 105.514L376.672 100.939L373.802 103.232L376.851 107.048C377.085 107.34 377.182 107.659 377.144 108.003C377.126 108.349 376.97 108.639 376.678 108.873C376.396 109.098 376.085 109.181 375.743 109.122C375.421 109.066 375.143 108.892 374.909 108.599L371.861 104.784L368.737 107.279L372.393 111.854C372.627 112.147 372.719 112.47 372.669 112.823C372.64 113.178 372.496 113.46 372.237 113.666C371.956 113.891 371.644 113.974 371.302 113.916C370.969 113.868 370.686 113.698 370.452 113.406L365.933 107.75C365.699 107.457 365.597 107.133 365.626 106.778C365.676 106.425 365.847 106.131 366.14 105.897L375.897 98.1002C376.19 97.8663 376.509 97.7687 376.853 97.8071C377.217 97.8478 377.516 98.0145 377.75 98.3071Z" fill="#265428"/>
<path d="M379.093 126.661C378.543 125.816 378.15 124.989 377.915 124.179C377.692 123.362 377.645 122.472 377.775 121.511C377.806 121.267 377.878 121.048 377.992 120.854C378.106 120.659 378.247 120.507 378.416 120.397C378.694 120.216 378.998 120.155 379.329 120.215C379.68 120.278 379.954 120.461 380.151 120.763C380.3 120.992 380.361 121.244 380.334 121.52C380.259 122.222 380.27 122.86 380.368 123.432C380.474 124.017 380.743 124.641 381.175 125.305C381.466 125.751 381.8 126.119 382.177 126.406C382.565 126.686 382.949 126.866 383.328 126.946C383.719 127.018 384.065 126.956 384.367 126.759C384.729 126.523 384.966 126.214 385.078 125.832C385.19 125.449 385.185 124.98 385.063 124.423C384.953 123.858 384.722 123.201 384.37 122.45C384.042 121.735 383.814 121.067 383.684 120.446C383.567 119.818 383.549 119.236 383.631 118.702C383.732 118.171 383.933 117.688 384.233 117.252C384.546 116.807 384.962 116.416 385.481 116.078C386.265 115.567 387.065 115.33 387.88 115.366C388.702 115.415 389.483 115.689 390.221 116.188C390.959 116.687 391.599 117.353 392.141 118.186C392.653 118.971 393.004 119.774 393.195 120.595C393.406 121.42 393.468 122.162 393.381 122.821C393.331 123.352 393.126 123.735 392.764 123.971C392.498 124.144 392.19 124.199 391.839 124.135C391.488 124.071 391.222 123.901 391.041 123.623C390.923 123.442 390.871 123.244 390.885 123.028C390.929 122.725 390.916 122.363 390.849 121.943C390.794 121.515 390.696 121.088 390.557 120.663C390.43 120.23 390.264 119.857 390.059 119.543C389.721 119.024 389.368 118.627 388.999 118.351C388.638 118.087 388.284 117.94 387.937 117.908C387.589 117.876 387.265 117.959 386.963 118.156C386.601 118.391 386.366 118.691 386.258 119.053C386.171 119.42 386.184 119.85 386.299 120.342C386.425 120.827 386.615 121.383 386.868 122.009C387.207 122.819 387.463 123.555 387.636 124.216C387.817 124.89 387.88 125.502 387.827 126.053C387.785 126.596 387.606 127.099 387.289 127.563C386.985 128.02 386.525 128.448 385.909 128.849C385.124 129.36 384.307 129.584 383.456 129.519C382.606 129.454 381.798 129.163 381.032 128.648C380.274 128.144 379.628 127.482 379.093 126.661Z" fill="#265428"/>
<path d="M388.461 143.099C388.351 143.439 388.383 143.791 388.556 144.155C388.736 144.532 388.992 144.785 389.324 144.914C389.676 145.05 390.021 145.038 390.359 144.877L400.586 140.012L402.042 143.079C402.203 143.417 402.434 143.65 402.734 143.779C403.054 143.914 403.383 143.901 403.721 143.74C404.059 143.58 404.277 143.333 404.374 142.999C404.477 142.679 404.448 142.35 404.287 142.012L400.167 133.347C400.006 133.008 399.766 132.772 399.446 132.636C399.146 132.508 398.827 132.524 398.489 132.685C398.15 132.846 397.93 133.086 397.827 133.406C397.73 133.74 397.762 134.075 397.923 134.414L399.379 137.478L389.153 142.34C388.815 142.501 388.584 142.754 388.461 143.099Z" fill="#265428"/>
<path d="M406.253 168.787C405.277 169.251 404.289 169.521 403.289 169.598C402.288 169.675 401.32 169.569 400.385 169.28C399.469 168.997 398.634 168.533 397.88 167.886C397.133 167.253 396.53 166.455 396.072 165.492C395.614 164.529 395.376 163.558 395.357 162.578C395.337 161.598 395.504 160.657 395.857 159.756C396.229 158.861 396.761 158.05 397.452 157.322C398.143 156.595 398.977 155.999 399.952 155.535C400.928 155.071 401.916 154.801 402.917 154.724C403.917 154.647 404.875 154.75 405.791 155.033C406.726 155.322 407.568 155.783 408.315 156.417C409.063 157.05 409.666 157.848 410.124 158.811C410.582 159.774 410.82 160.745 410.839 161.725C410.865 162.718 410.691 163.662 410.319 164.557C409.966 165.458 409.444 166.273 408.753 167C408.062 167.727 407.229 168.323 406.253 168.787ZM405.047 166.25C405.918 165.835 406.622 165.285 407.157 164.6C407.706 163.909 408.043 163.158 408.169 162.349C408.294 161.539 408.165 160.731 407.782 159.924C407.398 159.118 406.853 158.508 406.146 158.094C405.439 157.681 404.65 157.465 403.781 157.448C402.917 157.444 402.043 157.652 401.159 158.073C400.287 158.487 399.574 159.033 399.019 159.712C398.483 160.397 398.153 161.145 398.027 161.954C397.902 162.764 398.03 163.572 398.414 164.378C398.798 165.185 399.343 165.795 400.05 166.209C400.757 166.622 401.545 166.838 402.415 166.855C403.298 166.866 404.175 166.664 405.047 166.25Z" fill="#265428"/>
<path d="M269.846 26.7441C271.196 27.0471 272.13 27.589 272.648 28.3699C273.167 29.1508 273.288 30.1598 273.01 31.3967C272.861 32.0574 272.798 32.4364 272.132 33.0379C271.466 33.6394 270.62 33.8353 270.62 33.8353C270.62 33.8353 271.042 34.1561 271.241 34.3438C271.708 34.7589 272.05 35.2785 272.264 35.9024C272.495 36.5155 272.516 37.2437 272.327 38.0871C272.119 39.0148 271.794 39.7392 271.352 40.2601C270.924 40.7842 270.428 41.1527 269.863 41.3655C269.299 41.5783 268.721 41.6849 268.13 41.6851C267.543 41.6713 266.989 41.606 266.469 41.4893L261.219 40.3104C260.853 40.2283 260.571 40.0394 260.372 39.7436C260.189 39.4369 260.139 39.1009 260.222 38.7354L262.958 26.5484C263.04 26.1829 263.227 25.9075 263.52 25.7222C263.83 25.526 264.168 25.4689 264.533 25.551L269.846 26.7441ZM268.908 29.1469L265.429 28.3657L264.691 31.6549L268.233 32.4503C268.641 32.5418 269.036 32.4904 269.419 32.2959C269.803 32.1014 270.051 31.7512 270.165 31.2451C270.3 30.6407 270.244 30.1702 269.994 29.8337C269.762 29.4863 269.4 29.2573 268.908 29.1469ZM267.78 34.962L264.132 34.1429L263.218 38.2123L267.013 39.0645C267.66 39.2097 268.211 39.1562 268.666 38.9041C269.125 38.6379 269.431 38.1604 269.586 37.4716C269.728 36.8391 269.704 36.3538 269.514 36.0159C269.324 35.678 269.061 35.4344 268.726 35.2852C268.39 35.136 268.075 35.0283 267.78 34.962Z" fill="#265428"/>
<path d="M289.407 37.4166L285.741 41.511L283.94 43.5229L282.029 45.6572C281.845 45.8838 281.625 46.0372 281.37 46.1176C281.132 46.1889 280.898 46.1851 280.666 46.1062C280.298 45.9808 280.06 45.7856 279.952 45.5207C279.844 45.2558 279.842 44.9733 279.944 44.6733C279.986 44.5505 280.05 44.4279 280.138 44.3055L289.397 33.8073C289.599 33.5717 289.835 33.416 290.104 33.3403C290.387 33.2692 290.653 33.2915 290.903 33.407C291.148 33.4906 291.348 33.6422 291.501 33.8619C291.673 34.0726 291.763 34.3237 291.77 34.6153L292.72 48.3164C292.728 48.5169 292.706 48.6921 292.655 48.8421C292.53 49.2103 292.307 49.4618 291.987 49.5964C291.681 49.7356 291.385 49.7565 291.098 49.6589C290.853 49.5753 290.654 49.4237 290.5 49.204C290.36 48.989 290.28 48.7334 290.259 48.4371L290.04 45.6002L289.831 42.9039L289.407 37.4166ZM285.741 41.511L289.831 42.9039L290.04 45.6002L283.94 43.5229L285.741 41.511Z" fill="#265428"/>
<path d="M304.258 56.0594C303.327 55.6704 302.537 55.2074 301.887 54.6703C301.243 54.1199 300.704 53.4106 300.271 52.5424C300.159 52.3239 300.096 52.1022 300.08 51.8772C300.065 51.6522 300.096 51.4467 300.174 51.2606C300.302 50.9549 300.519 50.7335 300.826 50.5965C301.152 50.4517 301.482 50.4487 301.814 50.5876C302.066 50.6932 302.259 50.8674 302.392 51.1102C302.725 51.7334 303.093 52.2541 303.495 52.6724C303.912 53.0962 304.485 53.4609 305.216 53.7665C305.708 53.9721 306.191 54.0879 306.664 54.1139C307.142 54.1266 307.561 54.0595 307.919 53.9125C308.283 53.7523 308.534 53.506 308.673 53.1737C308.84 52.7749 308.862 52.386 308.739 52.0068C308.616 51.6277 308.348 51.2423 307.934 50.8506C307.526 50.4456 306.965 50.0316 306.252 49.6086C305.578 49.2022 305.014 48.7788 304.558 48.3383C304.107 47.8846 303.765 47.4137 303.532 46.9259C303.317 46.4303 303.212 45.9176 303.215 45.3879C303.223 44.8449 303.347 44.2876 303.585 43.716C303.947 42.8521 304.474 42.206 305.169 41.778C305.876 41.3554 306.675 41.143 307.566 41.1407C308.457 41.1384 309.361 41.329 310.278 41.7123C311.142 42.0735 311.884 42.5398 312.504 43.1112C313.143 43.6749 313.612 44.2534 313.91 44.8466C314.168 45.3134 314.214 45.7462 314.047 46.145C313.925 46.4374 313.7 46.656 313.375 46.8008C313.049 46.9456 312.733 46.9541 312.427 46.8263C312.228 46.743 312.073 46.6082 311.964 46.4219C311.829 46.1469 311.615 45.8546 311.323 45.5451C311.036 45.2223 310.716 44.9244 310.362 44.6514C310.013 44.365 309.666 44.1497 309.32 44.0052C308.748 43.7663 308.233 43.6366 307.773 43.6161C307.326 43.6012 306.951 43.6783 306.646 43.8475C306.341 44.0167 306.119 44.2675 305.98 44.5998C305.813 44.9986 305.787 45.3781 305.902 45.7384C306.036 46.0909 306.289 46.4387 306.661 46.7815C307.038 47.1111 307.508 47.4635 308.069 47.8387C308.805 48.3183 309.431 48.7828 309.946 49.2322C310.474 49.6871 310.871 50.1575 311.136 50.6432C311.407 51.1156 311.542 51.6327 311.541 52.1945C311.546 52.7431 311.407 53.3563 311.124 54.0342C310.763 54.8982 310.212 55.5426 309.473 55.9673C308.733 56.392 307.902 56.6065 306.978 56.611C306.069 56.6211 305.162 56.4372 304.258 56.0594Z" fill="#265428"/>
<path d="M211.432 19.7394C211.776 19.7011 212.068 19.7846 212.308 19.9898C212.548 20.195 212.687 20.4694 212.726 20.8131L214.119 33.3343C214.16 33.7066 214.066 34.036 213.837 34.3224C213.621 34.5928 213.327 34.7488 212.954 34.7902C212.768 34.8109 212.572 34.8038 212.365 34.7688C212.171 34.7179 212.017 34.6408 211.904 34.5374L202.909 25.4062L203.929 34.5767C203.967 34.9204 203.884 35.2195 203.681 35.4741C203.491 35.7271 203.218 35.8735 202.86 35.9133C202.516 35.9515 202.224 35.868 201.984 35.6628C201.744 35.4576 201.605 35.1832 201.566 34.8396L200.173 22.3183C200.132 21.946 200.219 21.6247 200.436 21.3542C200.665 21.0678 200.965 20.9039 201.338 20.8624C201.538 20.8401 201.75 20.86 201.975 20.922C202.198 20.9697 202.368 21.0667 202.486 21.2131L211.413 30.3155L210.384 21.0735C210.346 20.7299 210.422 20.4316 210.611 20.1786C210.8 19.9256 211.074 19.7792 211.432 19.7394Z" fill="#265428"/>
<defs>
<linearGradient id="paint0_linear_641_3624" x1="220" y1="0.0241699" x2="220" y2="440.024" gradientUnits="userSpaceOnUse">
<stop stop-color="#285829"/>
<stop offset="1" stop-color="#245126"/>
</linearGradient>
<linearGradient id="paint1_linear_641_3624" x1="220" y1="0.423361" x2="220" y2="440.024" gradientUnits="userSpaceOnUse">
<stop stop-color="#285829"/>
<stop offset="1" stop-color="#245126"/>
</linearGradient>
<linearGradient id="paint2_linear_641_3624" x1="220" y1="0.0241699" x2="220" y2="440.024" gradientUnits="userSpaceOnUse">
<stop stop-color="#285829"/>
<stop offset="1" stop-color="#245126"/>
</linearGradient>
<linearGradient id="paint3_linear_641_3624" x1="220" y1="0.0241699" x2="220" y2="440.024" gradientUnits="userSpaceOnUse">
<stop stop-color="#285829"/>
<stop offset="1" stop-color="#245126"/>
</linearGradient>
<linearGradient id="paint4_linear_641_3624" x1="220" y1="0.0241699" x2="220" y2="440.024" gradientUnits="userSpaceOnUse">
<stop stop-color="#285829"/>
<stop offset="1" stop-color="#245126"/>
</linearGradient>
<linearGradient id="paint5_linear_641_3624" x1="220" y1="0.0241699" x2="220" y2="440.024" gradientUnits="userSpaceOnUse">
<stop stop-color="#285829"/>
<stop offset="1" stop-color="#245126"/>
</linearGradient>
<linearGradient id="paint6_linear_641_3624" x1="220" y1="0.0241699" x2="220" y2="440.016" gradientUnits="userSpaceOnUse">
<stop stop-color="#295B2B"/>
<stop offset="1" stop-color="#245126"/>
</linearGradient>
<linearGradient id="paint7_linear_641_3624" x1="220.081" y1="0.0241699" x2="220.081" y2="440.404" gradientUnits="userSpaceOnUse">
<stop stop-color="#295B2B"/>
<stop offset="1" stop-color="#245126"/>
</linearGradient>
<linearGradient id="paint8_linear_641_3624" x1="220" y1="0.0241699" x2="220" y2="440.57" gradientUnits="userSpaceOnUse">
<stop stop-color="#295B2B"/>
<stop offset="1" stop-color="#245126"/>
</linearGradient>
<linearGradient id="paint9_linear_641_3624" x1="220" y1="0.0241699" x2="220" y2="440.024" gradientUnits="userSpaceOnUse">
<stop stop-color="#295B2B"/>
<stop offset="1" stop-color="#245126"/>
</linearGradient>
<linearGradient id="paint10_linear_641_3624" x1="222.619" y1="0.0241699" x2="222.619" y2="444.732" gradientUnits="userSpaceOnUse">
<stop stop-color="#295B2B"/>
<stop offset="1" stop-color="#245126"/>
</linearGradient>
</defs>
</svg>
